<svg xmlns="http://www.w3.org/2000/svg" width="228.875" height="230.675" viewBox="0 0 228.875 230.675">
  <g id="freepik--background-simple--inject-131" transform="matrix(0.485, 0.875, -0.875, 0.485, 145.811, 0)">
    <path id="Path_1404" data-name="Path 1404" d="M180.679,42.214a39.369,39.369,0,0,0-38.633-2.039c-10.677,5.219-18.983,14.1-29.672,19.319-14.6,7.145-30.635,11.051-45.4,17.9S38.086,94.962,32.792,110.352a69.942,69.942,0,0,0,5.492,56.167c15.506,27.009,46.262,36.6,75.871,36.252,62.567-.737,94.8-76.514,84.587-130.973C196.513,60,191.079,48.681,180.679,42.214Z" transform="translate(-29.274 -36.065)" fill="#2093aa"/>
    <path id="Path_1405" data-name="Path 1405" d="M180.679,42.214a39.369,39.369,0,0,0-38.633-2.039c-10.677,5.219-18.983,14.1-29.672,19.319-14.6,7.145-30.635,11.051-45.4,17.9S38.086,94.962,32.792,110.352a69.942,69.942,0,0,0,5.492,56.167c15.506,27.009,46.262,36.6,75.871,36.252,62.567-.737,94.8-76.514,84.587-130.973C196.513,60,191.079,48.681,180.679,42.214Z" transform="translate(-29.274 -36.065)" fill="#fff" opacity="0.7"/>
  </g>
</svg>
