<svg xmlns="http://www.w3.org/2000/svg" width="171" height="173" viewBox="0 0 171 173">
  <g id="Medicine-bro_1_" data-name="Medicine-bro (1)" transform="translate(0 0)">
    <g id="freepik--background-simple--inject-131" transform="translate(0 4.896)">
      <path id="Path_1404" data-name="Path 1404" d="M180.385,42.2a39.33,39.33,0,0,0-38.558-2.032c-10.656,5.2-18.947,14.052-29.614,19.259C97.639,66.546,81.638,70.44,66.9,77.264S38.069,94.782,32.785,110.124a69.659,69.659,0,0,0,5.482,55.995c15.476,26.927,46.172,36.49,75.724,36.141,62.446-.734,94.612-76.28,84.423-130.573C196.188,59.924,190.765,48.643,180.385,42.2Z" transform="translate(-29.274 -36.065)" fill="#2093aa"/>
      <path id="Path_1405" data-name="Path 1405" d="M180.385,42.2a39.33,39.33,0,0,0-38.558-2.032c-10.656,5.2-18.947,14.052-29.614,19.259C97.639,66.546,81.638,70.44,66.9,77.264S38.069,94.782,32.785,110.124a69.659,69.659,0,0,0,5.482,55.995c15.476,26.927,46.172,36.49,75.724,36.141,62.446-.734,94.612-76.28,84.423-130.573C196.188,59.924,190.765,48.643,180.385,42.2Z" transform="translate(-29.274 -36.065)" fill="#fff" opacity="0.7"/>
    </g>
    <g id="freepik--Graphics--inject-131" transform="translate(19.348 43.848)">
      <path id="Path_1406" data-name="Path 1406" d="M100.052,302.19a.195.195,0,0,1,.192.16l.608,3.355,3.083-.558a.2.2,0,0,1,.226.157l.729,4.027a.195.195,0,0,1-.157.226l-3.083.558.608,3.359a.195.195,0,0,1-.157.227l-3.89.7a.2.2,0,0,1-.226-.157l-.608-3.356-3.079.558a.195.195,0,0,1-.227-.157l-.729-4.027a.2.2,0,0,1,.157-.226l3.079-.558-.608-3.355a.2.2,0,0,1,.157-.227l3.89-.706A.206.206,0,0,1,100.052,302.19Zm.643,3.937a.2.2,0,0,1-.192-.16l-.608-3.355-3.507.636L97,306.6a.195.195,0,0,1-.157.227l-3.079.558.66,3.643,3.079-.558a.2.2,0,0,1,.227.157l.608,3.356,3.507-.632-.608-3.359a.195.195,0,0,1,.157-.227l3.083-.558-.66-3.643-3.083.558A.2.2,0,0,1,100.7,306.127Z" transform="translate(-87.715 -237.639)" fill="#2093aa"/>
      <path id="Path_1407" data-name="Path 1407" d="M180.714,155.43a.2.2,0,0,1,.065.011l3.726,1.318a.2.2,0,0,1,.119.249l-1.136,3.215,2.954,1.042a.195.195,0,0,1,.119.249l-1.364,3.859a.2.2,0,0,1-.249.119L182,164.449l-1.139,3.216a.2.2,0,0,1-.248.119l-3.727-1.314a.195.195,0,0,1-.119-.249L177.9,163l-2.95-1.042a.2.2,0,0,1-.119-.249l1.36-3.859a.195.195,0,0,1,.249-.119l2.954,1.042,1.136-3.215a.195.195,0,0,1,.184-.13Zm3.478,1.631-3.359-1.188-1.136,3.215a.2.2,0,0,1-.249.119l-2.954-1.042-1.231,3.491,2.95,1.042a.2.2,0,0,1,.119.249l-1.136,3.219,3.359,1.184,1.14-3.216a.2.2,0,0,1,.249-.119l2.95,1.042,1.234-3.491-2.954-1.042a.195.195,0,0,1-.119-.249Z" transform="translate(-137.539 -148.086)" fill="#2093aa"/>
      <path id="Path_1408" data-name="Path 1408" d="M387.9,270.4a.2.2,0,0,1,.172.1l1.6,3.016,2.767-1.464a.2.2,0,0,1,.263.081l1.914,3.613a.195.195,0,0,1-.081.263l-2.767,1.464,1.6,3.016a.2.2,0,0,1-.081.264l-3.5,1.848a.2.2,0,0,1-.263-.081l-1.6-3.013-2.767,1.464a.195.195,0,0,1-.263-.081l-1.914-3.617a.2.2,0,0,1,.081-.263l2.767-1.464-1.6-3.016a.195.195,0,0,1,.081-.263l3.5-1.848A.194.194,0,0,1,387.9,270.4Zm1.688,3.578a.2.2,0,0,1-.172-.1l-1.6-3.016-3.152,1.666,1.6,3.016a.195.195,0,0,1-.081.263l-2.767,1.464,1.732,3.273,2.767-1.464a.2.2,0,0,1,.263.081l1.6,3.013,3.152-1.666-1.6-3.016a.195.195,0,0,1,.081-.263l2.767-1.464-1.732-3.269-2.767,1.464A.194.194,0,0,1,389.591,273.978Z" transform="translate(-264.773 -218.241)" fill="#2093aa"/>
      <path id="Ellipse_44" data-name="Ellipse 44" d="M2.08-.5A2.58,2.58,0,1,1-.5,2.08,2.583,2.583,0,0,1,2.08-.5Zm0,4.771A2.191,2.191,0,1,0-.11,2.08,2.193,2.193,0,0,0,2.08,4.271Z" transform="translate(0.5 54.784)" fill="#2093aa"/>
      <path id="Path_1409" data-name="Path 1409" d="M177.946,198.53a.826.826,0,1,1-.826.826A.827.827,0,0,1,177.946,198.53Zm0,1.263a.437.437,0,1,0-.437-.437A.437.437,0,0,0,177.946,199.793Z" transform="translate(-138.937 -174.386)" fill="#2093aa"/>
      <path id="Path_1410" data-name="Path 1410" d="M97.215,166.64h0a2.425,2.425,0,0,1,1.714,4.139,2.425,2.425,0,1,1-1.714-4.139Zm0,4.459a2.035,2.035,0,1,0-2.035-2.035A2.037,2.037,0,0,0,97.215,171.1Z" transform="translate(-88.6 -154.926)" fill="#2093aa"/>
      <path id="Path_1411" data-name="Path 1411" d="M353.238,249.516a1.458,1.458,0,1,1,1.458-1.458A1.459,1.459,0,0,1,353.238,249.516Zm0-2.526a1.068,1.068,0,1,0,1.068,1.068A1.069,1.069,0,0,0,353.238,246.99Z" transform="translate(-245.747 -203.718)" fill="#2093aa"/>
      <path id="Ellipse_45" data-name="Ellipse 45" d="M2.521-.5A3.021,3.021,0,1,1-.5,2.521,3.024,3.024,0,0,1,2.521-.5Zm0,5.652A2.631,2.631,0,1,0-.11,2.521,2.634,2.634,0,0,0,2.521,5.152Z" transform="translate(93.549 0.5)" fill="#2093aa"/>
    </g>
    <g id="freepik--Character--inject-131" transform="translate(47.118 26.401)">
      <path id="Path_1412" data-name="Path 1412" d="M202.013,209.51c.148.222,4.619,1.115,6.938,4.487a32.165,32.165,0,0,1,3.376,6.2,41.459,41.459,0,0,1,5.867,4.21,75.76,75.76,0,0,0,6.186,5.753c1.828,1.325,5.59,3.84,6.537,6.783,0,0-5.64,15.448-7.235,18.862s-5.527,10.661-5.527,10.661l-7.016,29.808h-40.7l-1.388-10.225s-12.474-2.448-17.685-7.016a97.4,97.4,0,0,1,1.688-21.388c2.179-10.084,9.589-31.052,14.61-37.456,0,0,8.018-3.836,15.093-5.067,0,0,4.592-3.629,7.6-4.015S202.013,209.51,202.013,209.51Z" transform="translate(-151.035 -163.916)" fill="#fff"/>
      <path id="Path_1413" data-name="Path 1413" d="M197.36,382.262a50.262,50.262,0,0,0,10.443,1.243,18.527,18.527,0,0,0,10.447-2.978,6.718,6.718,0,0,1,1.949-1.13c1.6-.448,3.181.608,4.767,1.1a9.611,9.611,0,0,0,6.19-.421,28.566,28.566,0,0,0,5.5-3.076q-.39,5.379-.253,10.778l2.506.1,6.42-28.249S234.352,372.384,229,376.193l-10.267-2.643a7.174,7.174,0,0,1-3,1.208s-.932,3.582-6.171,3.59-12.75-.694-12.75-.694Z" transform="translate(-178.794 -255.519)" fill="#2093aa"/>
      <path id="Path_1414" data-name="Path 1414" d="M197.36,382.262a50.262,50.262,0,0,0,10.443,1.243,18.527,18.527,0,0,0,10.447-2.978,6.718,6.718,0,0,1,1.949-1.13c1.6-.448,3.181.608,4.767,1.1a9.611,9.611,0,0,0,6.19-.421,28.566,28.566,0,0,0,5.5-3.076q-.39,5.379-.253,10.778l2.506.1,6.42-28.249S234.352,372.384,229,376.193l-10.267-2.643a7.174,7.174,0,0,1-3,1.208s-.932,3.582-6.171,3.59-12.75-.694-12.75-.694Z" transform="translate(-178.794 -255.519)" fill="#fff" opacity="0.5"/>
      <path id="Path_1415" data-name="Path 1415" d="M159.087,282.47s-4.767,23.142-4.526,31.091c0,0,6.479-1.817,11,0,0,0-7.695-.858-11.008,2.67s6.884,12.8,27.286,10.914c0,0,4.07,1.275,6.135.526,0,0-.554,3.688-6.171,3.59-5.594-.222-21.958-.359-30.436-7.7C151.373,323.563,150.3,302.288,159.087,282.47Z" transform="translate(-151.042 -208.436)" fill="#2093aa"/>
      <path id="Path_1416" data-name="Path 1416" d="M159.087,282.47s-4.767,23.142-4.526,31.091c0,0,6.479-1.817,11,0,0,0-7.695-.858-11.008,2.67s6.884,12.8,27.286,10.914c0,0,4.07,1.275,6.135.526,0,0-.554,3.688-6.171,3.59-5.594-.222-21.958-.359-30.436-7.7C151.373,323.563,150.3,302.288,159.087,282.47Z" transform="translate(-151.042 -208.436)" fill="#fff" opacity="0.6"/>
      <path id="Path_1417" data-name="Path 1417" d="M196.24,293.85s1.407,10.248,3.68,12.392,12.863,1.442,17.058,3.754a34.92,34.92,0,0,1,11.09-11.121l-9.683,15.245-8.369-1.976L199.8,310.584l-.858,1.972h-1.536S197.234,301.619,196.24,293.85Z" transform="translate(-178.446 -215.38)" fill="#2093aa"/>
      <path id="Path_1418" data-name="Path 1418" d="M196.24,293.85s1.407,10.248,3.68,12.392,12.863,1.442,17.058,3.754a34.92,34.92,0,0,1,11.09-11.121l-9.683,15.245-8.369-1.976L199.8,310.584l-.858,1.972h-1.536S197.234,301.619,196.24,293.85Z" transform="translate(-178.446 -215.38)" fill="#fff" opacity="0.5"/>
      <path id="Path_1419" data-name="Path 1419" d="M234.7,238.427c4.377,2.577,4.869,5.481,5.769,7.554a16.248,16.248,0,0,0-6.51,2.3c-2.339,1.7-3.606,4.514-4.588,7.246a72.213,72.213,0,0,0-2.339,7.9,27.134,27.134,0,0,1,8.767-9.488c2.1-1.388,4.7-2.506,7.094-1.723-2.011.854-4.288,2.007-4.713,4.151a2.015,2.015,0,0,0,.043,1.076c.359,1.01,1.614,1.282,2.565,1.774a6.036,6.036,0,0,1,2.9,5.216,17.934,17.934,0,0,1-1.2,6.108l-1.676,5.216a25.584,25.584,0,0,1-2.729,6.424,8.63,8.63,0,0,1-5.531,3.964,4.815,4.815,0,0,1-2.857-.324,9.484,9.484,0,0,1-1.883-1.345,19.489,19.489,0,0,0-9.6-4.147c4.529,2.994,6.673,8.431,8.552,13.526a9.96,9.96,0,0,0-3.606-3.649,2.3,2.3,0,0,0-1.31-.413c-1.232.1-1.622,1.668-2.362,2.651a4.3,4.3,0,0,1-3.972,1.4,12.413,12.413,0,0,1-4.109-1.559l-16.57-8.545-1.169,3.508a82.09,82.09,0,0,0,33.422,14.247s13.136-10.38,17.791-19.584,11.885-28.066,11.885-28.066a21.484,21.484,0,0,0-7.184-7.628s-3.387-1.6-4.1-3.582-7.079-5.4-7.079-5.4S239.23,239.343,234.7,238.427Z" transform="translate(-176.878 -180.831)" fill="#2093aa"/>
      <path id="Path_1420" data-name="Path 1420" d="M234.7,238.427c4.377,2.577,4.869,5.481,5.769,7.554a16.248,16.248,0,0,0-6.51,2.3c-2.339,1.7-3.606,4.514-4.588,7.246a72.213,72.213,0,0,0-2.339,7.9,27.134,27.134,0,0,1,8.767-9.488c2.1-1.388,4.7-2.506,7.094-1.723-2.011.854-4.288,2.007-4.713,4.151a2.015,2.015,0,0,0,.043,1.076c.359,1.01,1.614,1.282,2.565,1.774a6.036,6.036,0,0,1,2.9,5.216,17.934,17.934,0,0,1-1.2,6.108l-1.676,5.216a25.584,25.584,0,0,1-2.729,6.424,8.63,8.63,0,0,1-5.531,3.964,4.815,4.815,0,0,1-2.857-.324,9.484,9.484,0,0,1-1.883-1.345,19.489,19.489,0,0,0-9.6-4.147c4.529,2.994,6.673,8.431,8.552,13.526a9.96,9.96,0,0,0-3.606-3.649,2.3,2.3,0,0,0-1.31-.413c-1.232.1-1.622,1.668-2.362,2.651a4.3,4.3,0,0,1-3.972,1.4,12.413,12.413,0,0,1-4.109-1.559l-16.57-8.545-1.169,3.508a82.09,82.09,0,0,0,33.422,14.247s13.136-10.38,17.791-19.584,11.885-28.066,11.885-28.066a21.484,21.484,0,0,0-7.184-7.628s-3.387-1.6-4.1-3.582-7.079-5.4-7.079-5.4S239.23,239.343,234.7,238.427Z" transform="translate(-176.878 -180.831)" fill="#fff" opacity="0.6"/>
      <path id="Path_1421" data-name="Path 1421" d="M250.376,122.622s.885-10.318-3.563-11.3a12.159,12.159,0,0,1-6.946-5.067l-15.779,4.4-2.448,9.488,1.559,4.8s.327,4.455.39,6.658,0,3.9,1.668,6.572,3.22,5.329,6.825,7.64v6.077s-2.23,6.506-1,10.5c0,0,.737.78,2.771-.39s10.739-6.985,13.776-13.058l.943-15.44a3.48,3.48,0,0,0,3.586-1.894,7.961,7.961,0,0,0,.908-6.958c-.616-2.12-3.267-.748-3.267-.748Z" transform="translate(-193.946 -100.907)" fill="#999"/>
      <path id="Path_1422" data-name="Path 1422" d="M248.87,180.914a4.393,4.393,0,0,1,3.539-1.411s1.9-3,3.9-2.448c0,0,.616,3.177-1.781,4.428A5.222,5.222,0,0,1,248.87,180.914Z" transform="translate(-210.561 -144.071)" fill="#737373"/>
      <path id="Path_1423" data-name="Path 1423" d="M238.192,151.753a9.115,9.115,0,0,1-4.856-1.376,20,20,0,0,1-5.915-6.26c-1.683-2.7-2.588-5.353-2.483-7.286a47.065,47.065,0,0,0-.326-7.158c-.166-1.752-.338-3.564-.427-5.655a12.635,12.635,0,0,1,.471-3.825,18.8,18.8,0,0,1,1.246-3.276,20.777,20.777,0,0,1,1.881-3.161.195.195,0,0,1,.31.236,20.387,20.387,0,0,0-1.845,3.1A15.052,15.052,0,0,0,224.575,124c.088,2.081.259,3.888.425,5.635a47.345,47.345,0,0,1,.327,7.216c-.1,1.855.782,4.427,2.424,7.058a19.6,19.6,0,0,0,5.791,6.136,9.37,9.37,0,0,0,10.194-.387c3.044-2.029,5.252-5.837,6.058-10.446.072-.4.125-.787.162-1.185a.195.195,0,1,1,.388.036c-.038.409-.092.807-.166,1.217a19.7,19.7,0,0,1-2.041,5.982,13.109,13.109,0,0,1-4.186,4.721,10.6,10.6,0,0,1-5.268,1.756Q238.437,151.753,238.192,151.753Z" transform="translate(-195.493 -105.441)" fill="#263238"/>
      <path id="Path_1424" data-name="Path 1424" d="M245.8,205.2h-.053a.7.7,0,0,1-.722-.467,12.959,12.959,0,0,1-.137-4.724,26.432,26.432,0,0,1,.917-4.6c.592-1.852,0-7.367-.008-7.423a.195.195,0,1,1,.387-.042c.025.23.609,5.653-.008,7.584-.645,2.009-1.481,6.9-.78,9.084.016.051.06.186.365.2a7.712,7.712,0,0,0,3.188-1.278,39.586,39.586,0,0,0,4.809-3.377c3.879-3.144,6.793-6.495,7.8-8.974.011-.353.1-3.3.287-6.549a54.137,54.137,0,0,1,.959-8.943.195.195,0,1,1,.375.107c-.868,3.036-1.229,15.307-1.232,15.431a.194.194,0,0,1-.014.067,16.842,16.842,0,0,1-3.14,4.651A41.9,41.9,0,0,1,254,200.46a39.988,39.988,0,0,1-4.859,3.412A8.686,8.686,0,0,1,245.8,205.2Z" transform="translate(-208.038 -143.194)" fill="#263238"/>
      <path id="Path_1425" data-name="Path 1425" d="M248.532,179.73a7.537,7.537,0,0,1-1.89-.222.195.195,0,0,1,.106-.375h0A7.821,7.821,0,0,0,250,179.2a6.667,6.667,0,0,0,5.023-4.478.195.195,0,1,1,.362.144,7.978,7.978,0,0,1-2.433,3.418,6.7,6.7,0,0,1-2.892,1.3A8.049,8.049,0,0,1,248.532,179.73Z" transform="translate(-209.115 -142.614)" fill="#263238"/>
      <path id="Path_1426" data-name="Path 1426" d="M248.25,193.75s1.286,3.988,4.062,4.225,9.718-5.325,12.084-11.877V182.82s-1.949,8.576-7.656,10.135-8.377-.425-8.377-.425Z" transform="translate(-210.183 -147.63)" fill="#263238"/>
      <path id="Path_1427" data-name="Path 1427" d="M255.721,176.636h0c.094,0,.189,0,.284.01a.2.2,0,0,1,.179.165,6.069,6.069,0,0,1-.105,2.053,3.809,3.809,0,0,1-2.511,2.915,4.989,4.989,0,0,1-5.144-.934.2.2,0,0,1-.02-.269,4.15,4.15,0,0,1,3.209-1.511c.122,0,.246.005.368.016a5.359,5.359,0,0,1,.852-1.157A3.975,3.975,0,0,1,255.721,176.636Zm.1.391h-.1a3.545,3.545,0,0,0-2.6,1.16,4.842,4.842,0,0,0-.851,1.184.2.2,0,0,1-.2.112,3.772,3.772,0,0,0-3.24,1.2,4.6,4.6,0,0,0,4.6.735l.007,0a3.393,3.393,0,0,0,2.26-2.623A5.879,5.879,0,0,0,255.817,177.027Z" transform="translate(-210.25 -143.856)" fill="#263238"/>
      <path id="Path_1428" data-name="Path 1428" d="M246.553,157.677a1.622,1.622,0,0,1-.454-.06,1.1,1.1,0,0,1-.679-.542,2.483,2.483,0,0,1-.139-1.761,9.965,9.965,0,0,1,.571-1.656l.057-.139c.071-.174.146-.351.219-.523a10.45,10.45,0,0,0,.848-2.623,25.992,25.992,0,0,0,.162-3.674.195.195,0,1,1,.39-.01,26.376,26.376,0,0,1-.165,3.731v0a10.732,10.732,0,0,1-.875,2.725c-.072.171-.147.348-.217.52l-.058.14c-.367.882-.921,2.216-.45,3.08a.71.71,0,0,0,.446.354,3.356,3.356,0,0,0,1.951-.432.195.195,0,0,1,.188.342A4.4,4.4,0,0,1,246.553,157.677Z" transform="translate(-208.315 -125.468)" fill="#263238"/>
      <path id="Path_1429" data-name="Path 1429" d="M256.36,170.834a3.067,3.067,0,0,1-.411-.029.195.195,0,0,1,.052-.386c.958.13,1.512-.218,1.645-1.035a.195.195,0,1,1,.385.063,1.513,1.513,0,0,1-.858,1.228A1.952,1.952,0,0,1,256.36,170.834Z" transform="translate(-214.778 -139.331)" fill="#263238"/>
      <path id="Path_1430" data-name="Path 1430" d="M266.34,141.4a.389.389,0,0,1-.269-.108,3.192,3.192,0,0,0-4.412,0,.39.39,0,1,1-.538-.564,3.971,3.971,0,0,1,5.489,0,.39.39,0,0,1-.269.672Z" transform="translate(-217.963 -121.277)" fill="#263238"/>
      <path id="Path_1431" data-name="Path 1431" d="M234.6,143.832a.389.389,0,0,1-.307-.149,2.551,2.551,0,0,0-1.639-.887,2.678,2.678,0,0,0-2,.925.39.39,0,1,1-.545-.558,3.407,3.407,0,0,1,2.607-1.145,3.312,3.312,0,0,1,2.194,1.183.39.39,0,0,1-.307.63Z" transform="translate(-199.041 -122.73)" fill="#263238"/>
      <path id="Path_1432" data-name="Path 1432" d="M289.49,160.29a4.874,4.874,0,0,1-1.741-.384.195.195,0,0,1,.141-.363c1.283.5,2.191.476,2.857-.069a6.109,6.109,0,0,0,1.394-2.377c.1-.236.2-.479.306-.721a6.585,6.585,0,0,0,.285-4.716,2.142,2.142,0,0,0-1.173-1.261c-2.513-.994-4.534,3.779-4.554,3.827a.195.195,0,0,1-.36-.15,11.969,11.969,0,0,1,1.408-2.414,5.348,5.348,0,0,1,1.585-1.454,2.335,2.335,0,0,1,2.064-.171,2.55,2.55,0,0,1,1.39,1.476,6.9,6.9,0,0,1-.289,5.021c-.1.238-.206.48-.3.714a6.35,6.35,0,0,1-1.507,2.529,2.237,2.237,0,0,1-1.326.509Q289.58,160.29,289.49,160.29Z" transform="translate(-233.602 -127.525)" fill="#263238"/>
      <path id="Path_1433" data-name="Path 1433" d="M245.435,118.4s-2-.709-2.374-3.964,1.625-6.514.885-8.852-6.576-1.169-7.905-5.247c0,0-4.381,3.267-12.863,2.565a20,20,0,0,0-2.1,4.911,30.2,30.2,0,0,0,.031,8.782,1.622,1.622,0,0,0,.055.3c.608,3.173-2.421-4.319-2.339-7.519s-1.848-7.266.667-10.295,11.733-4.8,13.549-6.225,5.348,2.366,9.429,3.762,7.465,3.06,6.95,8.849.027,6.564.051,9.613C249.469,115.088,247.582,114.379,245.435,118.4Z" transform="translate(-191.842 -92.544)" fill="#263238"/>
      <path id="Path_1434" data-name="Path 1434" d="M266.265,151.773c0,.78-.3,1.427-.674,1.427s-.67-.639-.67-1.427.3-1.423.67-1.423S266.265,150.993,266.265,151.773Z" transform="translate(-220.355 -127.817)" fill="#263238"/>
      <path id="Path_1435" data-name="Path 1435" d="M239.721,151.773c0,.78-.3,1.427-.67,1.427s-.67-.639-.67-1.427.3-1.423.67-1.423S239.721,150.993,239.721,151.773Z" transform="translate(-204.16 -127.817)" fill="#263238"/>
      <path id="Path_1436" data-name="Path 1436" d="M264.849,160.458h-.023a5.336,5.336,0,0,1-2.326-.956,6.537,6.537,0,0,1-.947-.791.195.195,0,1,1,.284-.267,5.8,5.8,0,0,0,3.035,1.628.195.195,0,0,1-.023.388Z" transform="translate(-218.268 -132.717)" fill="#263238"/>
      <path id="Path_1437" data-name="Path 1437" d="M237.375,160.458a.195.195,0,0,1-.013-.389c.03,0,2.429-.191,2.95-1.563a.195.195,0,0,1,.364.138,2.816,2.816,0,0,1-1.9,1.526,6.345,6.345,0,0,1-1.392.288Z" transform="translate(-203.428 -132.717)" fill="#263238"/>
      <path id="Path_1438" data-name="Path 1438" d="M264.465,230.264a1.588,1.588,0,0,1-.4-.056h0a12.581,12.581,0,0,1-1.758-.626c-.517-.225-1.03-.475-1.527-.715-.594-.288-1.208-.586-1.825-.842-1.794-.739-4.343-1.358-6.3-.117a.195.195,0,0,1-.209-.329,5.383,5.383,0,0,1,3.287-.751,10.663,10.663,0,0,1,3.367.837c.628.26,1.248.561,1.847.852.493.239,1,.487,1.513.709a12.2,12.2,0,0,0,1.7.606.625.625,0,0,0,.575-.043c.267-.242.148-1.012.069-1.521-.023-.15-.045-.292-.058-.414-.046-.443-.087-.892-.126-1.327-.062-.676-.125-1.376-.207-2.058a1.222,1.222,0,0,1,.1-.814.194.194,0,0,1,.023-.036,1.165,1.165,0,0,1,.656-.405,18.321,18.321,0,0,1,6.22-.451c.536.022,1.09.045,1.629.055h.019a.97.97,0,0,0,.564-.1c.285-.193.24-.686.151-1.066a16.046,16.046,0,0,0-7.436-9.483.195.195,0,0,1,.19-.34,16.74,16.74,0,0,1,4.78,4.131,14.468,14.468,0,0,1,2.845,5.6c.171.735.062,1.235-.325,1.486l-.015.009a1.358,1.358,0,0,1-.79.151c-.541-.01-1.094-.033-1.628-.055a18.006,18.006,0,0,0-6.1.436l-.018,0a.774.774,0,0,0-.428.254.832.832,0,0,0-.054.542.186.186,0,0,1,0,.022c.084.691.148,1.4.21,2.08.039.434.08.882.126,1.323.012.112.033.249.055.394.1.663.231,1.487-.193,1.87A.774.774,0,0,1,264.465,230.264Z" transform="translate(-212.691 -165.314)" fill="#263238"/>
      <path id="Path_1439" data-name="Path 1439" d="M234.728,227.99a.2.2,0,0,1-.185-.135c-.183-.568-.8-.871-1.4-1.165l-.124-.061c-.684-.338-1.476-.831-1.535-1.649-.062-.754.491-1.268,1.026-1.765a6.337,6.337,0,0,0,.577-.584l.01-.011a.7.7,0,0,0,.168-.294.648.648,0,0,0-.062-.363l0-.01a2.831,2.831,0,0,0-1.563-1.2l-.2-.1a4.145,4.145,0,0,1-.894-.561,1.723,1.723,0,0,1-.694-1.315.19.19,0,0,1,0-.029,2.279,2.279,0,0,1,.689-1.406,9.79,9.79,0,0,1,1.5-1.355,23.619,23.619,0,0,1,5.006-2.583.195.195,0,1,1,.15.36,23.327,23.327,0,0,0-4.925,2.538,9.4,9.4,0,0,0-1.449,1.307l-.011.011a1.889,1.889,0,0,0-.574,1.155,1.335,1.335,0,0,0,.54,1.007l.008.006a3.761,3.761,0,0,0,.815.511l.2.1a3.152,3.152,0,0,1,1.755,1.393,1.037,1.037,0,0,1,.094.595.2.2,0,0,1,0,.023,1.094,1.094,0,0,1-.261.469,6.676,6.676,0,0,1-.608.616c-.489.454-.95.883-.9,1.448v0c.044.621.728,1.036,1.319,1.328l.123.06a2.711,2.711,0,0,1,1.6,1.4.2.2,0,0,1-.186.255Z" transform="translate(-198.949 -166.29)" fill="#263238"/>
      <path id="Path_1440" data-name="Path 1440" d="M222.085,109.347l-.032,0a.2.2,0,0,1-.161-.224A3.186,3.186,0,0,1,223.2,107.1a5.292,5.292,0,0,1,2.3-.956,15.086,15.086,0,0,1,2.72-.108,19.366,19.366,0,0,0,2.049-.03,9.071,9.071,0,0,0,6.509-3.782.195.195,0,1,1,.318.225,9.46,9.46,0,0,1-6.79,3.944h0a19.658,19.658,0,0,1-2.092.031,14.793,14.793,0,0,0-2.65.1c-1.413.228-3.045,1.157-3.288,2.657A.2.2,0,0,1,222.085,109.347Z" transform="translate(-194.098 -98.399)" fill="#fff"/>
      <path id="Path_1441" data-name="Path 1441" d="M226.635,102.867a.195.195,0,0,1-.1-.363,9.267,9.267,0,0,1,4.826-.844c1.736,0,3.376.005,4.729-.868a8.411,8.411,0,0,0,1.962-2.008.195.195,0,0,1,.32.222,8.8,8.8,0,0,1-2.057,2.1l-.009.006c-1.451.939-3.228.936-4.945.933a8.986,8.986,0,0,0-4.627.79A.194.194,0,0,1,226.635,102.867Z" transform="translate(-196.874 -96.3)" fill="#fff"/>
      <path id="Path_1442" data-name="Path 1442" d="M252.745,301.279a.195.195,0,0,1-.164-.3l12-18.9a16.735,16.735,0,0,1,3.192-4.025,20.936,20.936,0,0,1,4.349-3.194,22.545,22.545,0,0,1,6.506-2.355.195.195,0,0,1,.076.382,21.34,21.34,0,0,0-10.649,5.436,16.606,16.606,0,0,0-3.131,3.941l-.009.016-12.006,18.909A.2.2,0,0,1,252.745,301.279Z" transform="translate(-212.807 -202.353)" fill="#263238"/>
      <path id="Path_1443" data-name="Path 1443" d="M297.265,264.635a.195.195,0,0,1-.132-.338,11.7,11.7,0,0,1,2.874-1.958.195.195,0,0,1,.169.351,11.305,11.305,0,0,0-2.778,1.893A.194.194,0,0,1,297.265,264.635Z" transform="translate(-239.973 -196.141)" fill="#263238"/>
      <path id="Path_1444" data-name="Path 1444" d="M279.085,285.7a.2.2,0,0,1-.192-.231A34.526,34.526,0,0,1,280,281.4a35.059,35.059,0,0,1,1.538-3.863,24.714,24.714,0,0,1,2.341-4.008.195.195,0,0,1,.315.23,29.3,29.3,0,0,0-3.823,7.758,34.143,34.143,0,0,0-1.094,4.024A.2.2,0,0,1,279.085,285.7Z" transform="translate(-228.879 -202.932)" fill="#263238"/>
      <path id="Path_1445" data-name="Path 1445" d="M195.264,303.9a.2.2,0,0,1-.195-.19c0-.052-.136-5.292-.489-10.853-.467-7.336-1.1-11.891-1.824-13.172a.195.195,0,0,1,.339-.192c.766,1.352,1.4,5.84,1.874,13.341.354,5.569.489,10.815.49,10.867a.2.2,0,0,1-.19.2Z" transform="translate(-176.305 -206.557)" fill="#263238"/>
      <path id="Path_1446" data-name="Path 1446" d="M226.492,301.211l-.033,0a89.938,89.938,0,0,1-11.864-3.164,84.828,84.828,0,0,1-10.948-4.521,55.893,55.893,0,0,1-10.857-6.992.2.2,0,0,1-.053-.227l4.724-10.856a.2.2,0,0,1,.2-.116c.033,0,3.379.429,7.325,1.077a79.58,79.58,0,0,1,11.3,2.488,10.3,10.3,0,0,1,3.9,2.9,30.982,30.982,0,0,1,3.3,4.479,53.948,53.948,0,0,1,3.172,5.924.195.195,0,0,1-.357.157,53.511,53.511,0,0,0-3.148-5.879,30.583,30.583,0,0,0-3.26-4.42,9.925,9.925,0,0,0-3.746-2.8,74.951,74.951,0,0,0-11.233-2.47c-3.476-.571-6.485-.968-7.167-1.056l-4.608,10.588c6.785,5.658,15.465,9.292,21.568,11.348a90.773,90.773,0,0,0,11.718,3.133c.281-.233,1.418-1.19,3.315-2.978,2.026-1.908,5.357-5.18,9.724-9.926s8.609-13.883,11.412-20.726c2.884-7.042,4.862-13.145,5.074-13.807-.853-2.613-3.4-4.442-5.857-6.211a20.788,20.788,0,0,1-4.226-3.609,27.53,27.53,0,0,0-5.153-4.6c-1.759-1.27-3.222-2.151-3.237-2.159a.195.195,0,1,1,.2-.334c.015.009,1.489.9,3.262,2.175a27.907,27.907,0,0,1,5.234,4.677,20.533,20.533,0,0,0,4.147,3.533c2.531,1.819,5.148,3.7,6.02,6.469a.194.194,0,0,1,0,.118c-.02.064-2.058,6.459-5.1,13.9-1.79,4.37-3.573,8.239-5.3,11.5a45.651,45.651,0,0,1-6.186,9.34c-4.377,4.758-7.718,8.038-9.749,9.951-2.2,2.076-3.389,3.039-3.4,3.049A.2.2,0,0,1,226.492,301.211Z" transform="translate(-176.299 -180.343)" fill="#263238"/>
      <path id="Path_1447" data-name="Path 1447" d="M265.1,351.8a.2.2,0,0,1-.159-.082c-1.215-1.7-3.712-3.277-7.22-4.551a37.61,37.61,0,0,0-5.011-1.429.195.195,0,0,1,.074-.383,38.071,38.071,0,0,1,5.07,1.445,24.979,24.979,0,0,1,4.137,1.9,10.509,10.509,0,0,1,3.268,2.792.195.195,0,0,1-.159.308Z" transform="translate(-212.807 -246.806)" fill="#263238"/>
      <path id="Path_1448" data-name="Path 1448" d="M238.607,386.194H197.893a.2.2,0,0,1-.193-.169L196.312,375.8a.195.195,0,1,1,.386-.052l1.365,10.056h40.389l6.616-29.1a.195.195,0,1,1,.38.086l-6.65,29.255A.2.2,0,0,1,238.607,386.194Z" transform="translate(-178.489 -253.64)" fill="#263238"/>
      <path id="Path_1449" data-name="Path 1449" d="M183.042,295.505a2.786,2.786,0,0,1-.755-.095,71.692,71.692,0,0,1-14.589-.841,46.4,46.4,0,0,1-9.756-2.7A29.155,29.155,0,0,1,152.491,289a12.592,12.592,0,0,1-1.707-1.35.2.2,0,0,1-.055-.118,60.322,60.322,0,0,1-.022-8.091c.158-2.937.474-5.963.939-8.994a98.386,98.386,0,0,1,2.429-11.313,118.434,118.434,0,0,1,3.934-11.652c1.263-3.21,2.693-6.487,4.248-9.74,2.649-5.539,4.774-9.137,4.8-9.173a.2.2,0,0,1,.06-.063c3.757-2.5,12.07-4.442,14.528-4.979l.633-.133a.195.195,0,1,1,.08.382l-.631.133c-2.432.531-10.638,2.449-14.357,4.9-.235.4-2.263,3.889-4.759,9.108a134.6,134.6,0,0,0-8.156,21.324A96.1,96.1,0,0,0,151.1,279.45a61.674,61.674,0,0,0,.014,7.972,13.6,13.6,0,0,0,1.621,1.268,28.847,28.847,0,0,0,5.386,2.83c4.523,1.843,12.391,3.946,24.188,3.5a.194.194,0,0,1,.071.01,2.908,2.908,0,0,0,1.668-.077,6.146,6.146,0,0,0,3.309-3.414.195.195,0,0,1,.35.171,8.649,8.649,0,0,1-1.806,2.562,4.648,4.648,0,0,1-1.762,1.061A3.645,3.645,0,0,1,183.042,295.505Z" transform="translate(-150.592 -172.386)" fill="#263238"/>
      <path id="Path_1450" data-name="Path 1450" d="M230.168,394.644c-.129-.021-.458-.185-.725-1.249a28.913,28.913,0,0,1-.342-7.187.195.195,0,0,1,.39.015,27.422,27.422,0,0,0,.331,7.078,2.5,2.5,0,0,0,.35.877.364.364,0,0,0,.084.086l0,0-.008,0-.018,0Z" transform="translate(-198.467 -271.622)" fill="#263238"/>
      <path id="Path_1451" data-name="Path 1451" d="M161.625,368.038a.195.195,0,0,1-.111-.355,19.619,19.619,0,0,1,5.049-2.549,15.7,15.7,0,0,1,4.128-.773,10.886,10.886,0,0,1,3.826.407.195.195,0,0,1-.129.368h0a10.748,10.748,0,0,0-3.7-.384A17.224,17.224,0,0,0,161.736,368,.194.194,0,0,1,161.625,368.038Z" transform="translate(-157.205 -258.396)" fill="#263238"/>
      <path id="Path_1452" data-name="Path 1452" d="M175.839,361.547a.2.2,0,0,1-.141-.061c-1.709-1.8-4.524-2.053-6.584-1.954a19.617,19.617,0,0,0-4.133.662.195.195,0,0,1-.111-.374,20.07,20.07,0,0,1,4.226-.677,12.7,12.7,0,0,1,3.648.3,6.542,6.542,0,0,1,3.237,1.775.195.195,0,0,1-.141.329Z" transform="translate(-159.219 -255.21)" fill="#263238"/>
      <path id="Path_1453" data-name="Path 1453" d="M182.937,350.552l.975.487,3.711-9.269s-3.843-.628-9.932,6.954A8.736,8.736,0,0,1,182.937,350.552Z" transform="translate(-167.127 -244.614)" fill="#999"/>
      <path id="Path_1453_-_Outline" data-name="Path 1453 - Outline" d="M183.383,351l-1.181-.59-.015-.012a8.591,8.591,0,0,0-5.13-1.787l-.4,0,.251-.312c5.246-6.532,8.87-7.04,9.856-7.04a1.74,1.74,0,0,1,.259.015l.24.039Zm-.973-.922.768.384,3.53-8.818a6.852,6.852,0,0,0-3.084,1.019,22.9,22.9,0,0,0-6.167,5.571,8.931,8.931,0,0,1,4.953,1.844Z" transform="translate(-166.497 -244.308)" fill="#263238"/>
      <path id="Path_1454" data-name="Path 1454" d="M229.65,386.52v4.12s5.251,1.559,9.137-.682Z" transform="translate(-198.833 -271.928)" fill="#999"/>
      <path id="Path_1454_-_Outline" data-name="Path 1454 - Outline" d="M229.15,385.8l9.786,3.682-.357.206a10.306,10.306,0,0,1-5.2,1.236,15.749,15.749,0,0,1-4.085-.536l-.139-.041Zm8.863,3.751-8.473-3.188v3.69a15.976,15.976,0,0,0,3.834.482A10.222,10.222,0,0,0,238.013,389.549Z" transform="translate(-198.528 -271.487)" fill="#263238"/>
      <path id="Path_1455" data-name="Path 1455" d="M274.256,240.346a.744.744,0,0,1-.023.226c-.164.643-4.167,15.756-16.98,22.48a.757.757,0,0,1-.362.09.78.78,0,0,1-.363-1.47c11.694-6.132,15.814-20.106,16.173-21.392Z" transform="translate(-214.98 -182.692)" fill="#263238"/>
      <path id="Path_1456" data-name="Path 1456" d="M224.455,226.356a38.392,38.392,0,0,0-3.216,14.657q0,.614,0,1.251v.316a2.615,2.615,0,0,0-.347.035,4.135,4.135,0,0,0-1.212.39v-1.68a38.111,38.111,0,0,1,4.171-17.272l.631-.133a2.082,2.082,0,0,0-.635,1.29,1.536,1.536,0,0,0,.608,1.146Z" transform="translate(-192.749 -172.709)" fill="#263238"/>
      <path id="Path_1457" data-name="Path 1457" d="M260.27,288.24c.912,1.267.164,3.372-1.676,4.7s-4.069,1.376-4.986.109-.168-3.372,1.672-4.7S259.369,286.973,260.27,288.24Z" transform="translate(-213.214 -211.396)" fill="#fff"/>
      <path id="Path_1457_-_Outline" data-name="Path 1457 - Outline" d="M257.9,286.82a2.613,2.613,0,0,1,2.22,1,2.661,2.661,0,0,1,.219,2.505,5.357,5.357,0,0,1-1.939,2.466,5.291,5.291,0,0,1-3.034,1.066,2.452,2.452,0,0,1-2.446-3.507,5.68,5.68,0,0,1,4.981-3.532Zm-2.535,6.65a4.9,4.9,0,0,0,2.806-.992,4.965,4.965,0,0,0,1.8-2.281,2.286,2.286,0,0,0-.169-2.148,2.238,2.238,0,0,0-1.9-.839,5.293,5.293,0,0,0-4.614,3.273,2.067,2.067,0,0,0,2.079,2.987Z" transform="translate(-212.906 -211.091)" fill="#263238"/>
      <path id="Path_1458" data-name="Path 1458" d="M257.749,286.735c.647.9.117,2.386-1.169,3.325s-2.881.974-3.508.078-.117-2.386,1.169-3.325S257.1,285.842,257.749,286.735Z" transform="translate(-212.961 -210.643)" fill="#fff"/>
      <path id="Path_1458_-_Outline" data-name="Path 1458 - Outline" d="M255.984,285.586a1.919,1.919,0,0,1,1.616.729,1.941,1.941,0,0,1,.166,1.826,3.845,3.845,0,0,1-1.379,1.771,3.758,3.758,0,0,1-2.175.766,1.881,1.881,0,0,1-1.608-.733,1.976,1.976,0,0,1-.157-1.822,3.814,3.814,0,0,1,1.371-1.772A3.744,3.744,0,0,1,255.984,285.586Zm-1.771,4.7a3.415,3.415,0,0,0,1.945-.691,3.454,3.454,0,0,0,1.241-1.586,1.566,1.566,0,0,0-.115-1.467,1.542,1.542,0,0,0-1.3-.568,3.628,3.628,0,0,0-3.169,2.275,1.6,1.6,0,0,0,.109,1.47A1.506,1.506,0,0,0,254.213,290.288Z" transform="translate(-212.654 -210.338)" fill="#263238"/>
      <path id="Path_1459" data-name="Path 1459" d="M216.514,291.389a.78.78,0,0,1-.932-1.247c.066-.055,2.682-2.28,1.536-9.776-.1-.635-.222-1.314-.39-2.027a19.4,19.4,0,0,0-2.822-7.262,3.9,3.9,0,0,0-3.411-1.731,2.61,2.61,0,0,0-.347.035,4.136,4.136,0,0,0-1.212.39,5.032,5.032,0,0,0-2.464,2.877l-.14.39a57.048,57.048,0,0,0-2.163,7.324c-.624,3.06-.834,6.268.273,8.509a4.873,4.873,0,0,0,3.025,2.561.779.779,0,1,1-.483,1.481,6.432,6.432,0,0,1-3.937-3.352c-1.247-2.522-1.084-5.956-.452-9.2a54.708,54.708,0,0,1,2.269-7.843l.14-.39a6.447,6.447,0,0,1,3.933-4.042,5.521,5.521,0,0,1,.978-.242c.2-.027.39-.047.592-.058a5.457,5.457,0,0,1,4.654,2.374,20.678,20.678,0,0,1,3.091,7.854c.183.834.324,1.618.429,2.358C219.913,288.778,216.666,291.28,216.514,291.389Z" transform="translate(-182.029 -199.475)" fill="#263238"/>
      <path id="Path_1459_-_Outline" data-name="Path 1459 - Outline" d="M206.921,292.842h0a.974.974,0,0,1-.3-.048,6.644,6.644,0,0,1-4.054-3.453,10.48,10.48,0,0,1-.95-4.41,23.283,23.283,0,0,1,.482-4.912v0a55.087,55.087,0,0,1,2.276-7.87l.139-.387a6.642,6.642,0,0,1,4.051-4.162h0a5.731,5.731,0,0,1,1.013-.25h0c.213-.029.407-.048.608-.06h.006l.156,0a5.649,5.649,0,0,1,4.662,2.458,20.87,20.87,0,0,1,3.123,7.926c.177.806.322,1.6.431,2.372a22.4,22.4,0,0,1,.2,5.3,12.34,12.34,0,0,1-.78,3.421,5.743,5.743,0,0,1-1.67,2.483l-.006,0a.974.974,0,0,1-1.165-1.559,4.732,4.732,0,0,0,1.163-2.012,15.955,15.955,0,0,0,.3-7.585c-.109-.708-.235-1.366-.387-2.012v0a19.258,19.258,0,0,0-2.788-7.188l-.005-.008a3.7,3.7,0,0,0-3.08-1.648c-.053,0-.107,0-.16,0a2.436,2.436,0,0,0-.323.033h0a3.939,3.939,0,0,0-1.154.371,4.813,4.813,0,0,0-2.367,2.765v0l-.14.39a57.06,57.06,0,0,0-2.156,7.3c-.753,3.693-.666,6.513.257,8.382a4.686,4.686,0,0,0,2.9,2.46l.006,0a.974.974,0,0,1-.3,1.9ZM202.48,280.1c-.759,3.9-.613,6.954.436,9.074a6.254,6.254,0,0,0,3.818,3.252h0a.584.584,0,0,0,.364-1.11,5.075,5.075,0,0,1-3.142-2.662,9.235,9.235,0,0,1-.8-4.031,22.834,22.834,0,0,1,.516-4.6v0a57.439,57.439,0,0,1,2.171-7.349l.139-.386a5.227,5.227,0,0,1,2.558-2.986h0a4.323,4.323,0,0,1,1.268-.408,2.816,2.816,0,0,1,.372-.038c.057,0,.117,0,.176,0a4.084,4.084,0,0,1,3.4,1.817,19.612,19.612,0,0,1,2.853,7.331c.154.655.282,1.323.392,2.041,1.159,7.582-1.491,9.863-1.6,9.956a.585.585,0,0,0,.7.937,5.371,5.371,0,0,0,1.533-2.309c.6-1.5,1.186-4.2.553-8.518-.108-.759-.251-1.548-.426-2.345a20.512,20.512,0,0,0-3.057-7.78l0-.006a5.259,5.259,0,0,0-4.343-2.291l-.142,0c-.189.011-.371.029-.573.057a5.349,5.349,0,0,0-.942.233,6.215,6.215,0,0,0-3.813,3.92l0,0-.141.392A54.7,54.7,0,0,0,202.48,280.1Z" transform="translate(-181.724 -199.17)" fill="#263238"/>
      <path id="Path_1460" data-name="Path 1460" d="M213.476,329.1s2.826,1.169,3.543,0,.136-1.719-.842-1.813a28.644,28.644,0,0,0-2.927,0Z" transform="translate(-188.826 -235.764)" fill="#263238"/>
      <path id="Path_1460_-_Outline" data-name="Path 1460 - Outline" d="M215.439,329.514h0a7.382,7.382,0,0,1-2.38-.535l-.1-.043-.266-2.133.209-.011c.489-.025.984-.038,1.474-.038s.985.013,1.474.038h.009a1.434,1.434,0,0,1,1.24.659,1.5,1.5,0,0,1-.25,1.449A1.519,1.519,0,0,1,215.439,329.514Zm-2.127-.854a6.847,6.847,0,0,0,2.127.464h0a1.167,1.167,0,0,0,1.071-.427c.277-.452.358-.822.234-1.072a1.1,1.1,0,0,0-.924-.445c-.481-.025-.968-.037-1.449-.037-.413,0-.83.009-1.244.027Z" transform="translate(-188.483 -235.458)" fill="#263238"/>
      <path id="Path_1461" data-name="Path 1461" d="M208,312.133a.777.777,0,0,1-.982.5,6.432,6.432,0,0,1-3.937-3.352c-1.247-2.522-1.084-5.956-.452-9.2h1.559c-.624,3.06-.834,6.268.273,8.509a4.873,4.873,0,0,0,3.025,2.561.78.78,0,0,1,.515.982Z" transform="translate(-182.048 -219.182)" fill="#fff"/>
      <path id="Path_1461_-_Outline" data-name="Path 1461 - Outline" d="M206.95,312.56h0a.973.973,0,0,1-.3-.048,6.644,6.644,0,0,1-4.054-3.453,10.48,10.48,0,0,1-.95-4.41,23.285,23.285,0,0,1,.482-4.912.2.2,0,0,1,.191-.158h1.559a.195.195,0,0,1,.191.234c-.753,3.694-.667,6.515.257,8.384a4.685,4.685,0,0,0,2.9,2.46h0a.972.972,0,0,1-.283,1.9Zm-4.47-12.591c-.725,3.827-.569,6.826.466,8.918a6.254,6.254,0,0,0,3.818,3.252h0a.582.582,0,1,0,.351-1.109,5.075,5.075,0,0,1-3.144-2.663,9.236,9.236,0,0,1-.8-4.031,22.425,22.425,0,0,1,.47-4.368Z" transform="translate(-181.743 -218.877)" fill="#263238"/>
      <path id="Path_1462" data-name="Path 1462" d="M231.9,323.4a1.3,1.3,0,0,0-.292,1.017,1.189,1.189,0,0,0,1.263.85,2.238,2.238,0,0,0,1.419-.78c.39-.437,1.742-3.294.491-2.8A7.057,7.057,0,0,0,231.9,323.4Z" transform="translate(-200.021 -232.329)" fill="#263238"/>
      <path id="Path_1462_-_Outline" data-name="Path 1462 - Outline" d="M232.446,325.16h0a1.391,1.391,0,0,1-1.328-1l0-.013,0-.014a1.5,1.5,0,0,1,.333-1.167,6.792,6.792,0,0,1,2.963-1.775.878.878,0,0,1,.319-.07.424.424,0,0,1,.409.259,2.356,2.356,0,0,1-.279,1.582,6.007,6.007,0,0,1-.723,1.341,2.427,2.427,0,0,1-1.541.845h-.006A1.4,1.4,0,0,1,232.446,325.16Zm-.949-1.092a1,1,0,0,0,.949.7h0c.033,0,.067,0,.1-.005a2.038,2.038,0,0,0,1.292-.711l0,0a5.845,5.845,0,0,0,.655-1.232,2.262,2.262,0,0,0,.284-1.275c-.009-.019-.013-.028-.053-.028a.506.506,0,0,0-.177.043h0a7.165,7.165,0,0,0-2.795,1.652l-.005.007A1.1,1.1,0,0,0,231.5,324.068Z" transform="translate(-199.716 -232.024)" fill="#263238"/>
      <path id="Path_1463" data-name="Path 1463" d="M237.164,311.084a.78.78,0,0,1-.932-1.247c.066-.055,2.682-2.28,1.536-9.776h1.559C240.563,308.472,237.316,310.974,237.164,311.084Z" transform="translate(-202.679 -219.17)" fill="#fff"/>
      <path id="Path_1463_-_Outline" data-name="Path 1463 - Outline" d="M236.428,311.1a.975.975,0,0,1-.626-1.722,4.731,4.731,0,0,0,1.163-2.012,15.955,15.955,0,0,0,.3-7.585.195.195,0,0,1,.193-.224h1.559a.2.2,0,0,1,.193.167,22.438,22.438,0,0,1,.206,5.3,12.346,12.346,0,0,1-.779,3.424,5.74,5.74,0,0,1-1.669,2.484l-.006,0A.971.971,0,0,1,236.428,311.1Zm1.261-11.154c1.073,7.4-1.526,9.639-1.638,9.732a.585.585,0,0,0,.7.937,5.369,5.369,0,0,0,1.532-2.31c.593-1.484,1.169-4.132.573-8.358Z" transform="translate(-202.374 -218.865)" fill="#263238"/>
      <path id="Path_1464" data-name="Path 1464" d="M256.879,149.816s4.908-2.549,9.418,0c0,0,.074,3.762-1.629,5.309-.6.55-3.372.643-4.42.55C255.991,155.289,256.879,149.816,256.879,149.816Z" transform="translate(-215.401 -126.8)" fill="#fff" opacity="0.2"/>
      <path id="Path_1465" data-name="Path 1465" d="M234.363,149.816s-4.908-2.549-9.414,0c0,0-.074,3.762,1.626,5.309.6.55,3.376.643,4.42.55C235.252,155.289,234.363,149.816,234.363,149.816Z" transform="translate(-195.965 -126.8)" fill="#fff" opacity="0.2"/>
      <path id="Path_1466" data-name="Path 1466" d="M261.546,148.183a9.11,9.11,0,0,1,4.542,1.158l.1.055,0,.111a12.348,12.348,0,0,1-.179,2.111,5.736,5.736,0,0,1-1.515,3.346,3.15,3.15,0,0,1-1.578.5,16.208,16.208,0,0,1-2.091.131c-.351,0-.662-.011-.9-.033a3.577,3.577,0,0,1-2.624-1.351,5.575,5.575,0,0,1-.984-3.049,8.538,8.538,0,0,1,.066-1.684l.016-.1.087-.045a10.045,10.045,0,0,1,1.47-.579A12.13,12.13,0,0,1,261.546,148.183Zm4.251,1.443a8.74,8.74,0,0,0-4.251-1.053,11.88,11.88,0,0,0-4.793,1.068,8.637,8.637,0,0,0-.047,1.511,5.188,5.188,0,0,0,.9,2.824,3.2,3.2,0,0,0,2.351,1.2c.223.02.531.031.865.031a7.667,7.667,0,0,0,3.406-.531C265.691,153.35,265.792,150.251,265.8,149.626Z" transform="translate(-215.096 -126.495)" fill="#263238"/>
      <path id="Path_1467" data-name="Path 1467" d="M229.087,148.183h0a12.13,12.13,0,0,1,3.59.576,10.05,10.05,0,0,1,1.47.579l.087.045.016.1a8.545,8.545,0,0,1,.066,1.684,5.575,5.575,0,0,1-.984,3.049,3.577,3.577,0,0,1-2.624,1.35c-.238.021-.548.033-.9.033a16.224,16.224,0,0,1-2.091-.131,3.153,3.153,0,0,1-1.579-.5,5.741,5.741,0,0,1-1.511-3.346,12.374,12.374,0,0,1-.178-2.111l0-.111.1-.055A9.1,9.1,0,0,1,229.087,148.183Zm4.792,1.457a11.9,11.9,0,0,0-4.792-1.068h0a8.728,8.728,0,0,0-4.248,1.053c.005.625.107,3.726,1.562,5.05a7.674,7.674,0,0,0,3.408.531c.334,0,.641-.011.864-.031a3.2,3.2,0,0,0,2.351-1.2C234.163,152.505,233.942,150.149,233.879,149.641Z" transform="translate(-195.659 -126.495)" fill="#263238"/>
      <path id="Path_1468" data-name="Path 1468" d="M251.925,150.9a3.838,3.838,0,0,0-2.148-.3,2,2,0,0,0-.744.273l-.23-.315a3.412,3.412,0,0,1,3.268-.023Z" transform="translate(-210.521 -127.705)" fill="#263238"/>
      <path id="Line_11" data-name="Line 11" d="M1.84.851-.21-.1l.164-.354L2,.5Z" transform="translate(51.024 23.293)" fill="#263238"/>
    </g>
    <g id="freepik--Table--inject-131" transform="translate(19.508 155.315)">
      <path id="Path_1469" data-name="Path 1469" d="M79.82,437.388,94.212,423.76H208.436l8.648,13.628H79.82" transform="translate(-79.625 -423.565)" fill="#fff"/>
      <path id="Path_1469_-_Outline" data-name="Path 1469 - Outline" d="M216.779,437.277H79.514a.195.195,0,0,1-.134-.337l14.392-13.627a.194.194,0,0,1,.134-.053H208.131a.194.194,0,0,1,.164.09l8.648,13.627a.195.195,0,0,1-.164.3ZM80,436.887H216.425l-8.4-13.238H93.984Z" transform="translate(-79.32 -423.26)" fill="#263238"/>
      <rect id="Rectangle_122" data-name="Rectangle 122" width="137.264" height="3.668" transform="translate(0.195 13.822)" fill="#263238"/>
      <path id="Rectangle_122_-_Outline" data-name="Rectangle 122 - Outline" d="M-.306-.5H136.959a.2.2,0,0,1,.194.195V3.363a.2.2,0,0,1-.194.195H-.306A.2.2,0,0,1-.5,3.363V-.305A.2.2,0,0,1-.306-.5Zm137.07.39H-.111V3.168H136.765Z" transform="translate(0.5 14.127)" fill="#263238"/>
    </g>
    <g id="freepik--Notebook--inject-131" transform="translate(33.854 153.791)">
      <path id="Path_1470" data-name="Path 1470" d="M116.83,445.656V442.83h22.608v2.826H116.83Z" transform="translate(-116.635 -433.677)" fill="#fff"/>
      <path id="Path_1470_-_Outline" data-name="Path 1470 - Outline" d="M139.328,445.546h-23V442.33h23Zm-22.609-.39h22.219V442.72H116.72Z" transform="translate(-116.33 -433.372)" fill="#263238"/>
      <path id="Path_1471" data-name="Path 1471" d="M116.83,428.808l13.355-8.958,17.822.421-8.568,8.537Z" transform="translate(-116.635 -419.655)" fill="#fff"/>
      <path id="Path_1471_-_Outline" data-name="Path 1471 - Outline" d="M139.133,428.7H116.525a.195.195,0,0,1-.109-.357l13.355-8.958a.2.2,0,0,1,.113-.033l17.822.421a.195.195,0,0,1,.133.333l-8.568,8.537A.2.2,0,0,1,139.133,428.7Zm-21.968-.39h21.887l8.187-8.158-17.3-.409Z" transform="translate(-116.33 -419.35)" fill="#263238"/>
      <path id="Path_1472" data-name="Path 1472" d="M174.83,432.293l8.568-8.583V420.93l-8.568,8.537Z" transform="translate(-152.027 -420.314)" fill="#fff"/>
      <path id="Path_1472_-_Outline" data-name="Path 1472 - Outline" d="M174.525,432.182a.195.195,0,0,1-.195-.195v-2.826a.2.2,0,0,1,.057-.138l8.568-8.537a.195.195,0,0,1,.332.138V423.4a.2.2,0,0,1-.057.138l-8.568,8.583A.2.2,0,0,1,174.525,432.182Zm.195-2.94v2.274l8.178-8.193v-2.229Z" transform="translate(-151.721 -420.009)" fill="#263238"/>
      <path id="Path_1473" data-name="Path 1473" d="M169.579,444.724a.392.392,0,0,1-.11-.016,2.968,2.968,0,0,1-.912-.494,2.362,2.362,0,0,1-.927-1.9,2.152,2.152,0,0,1,1.084-1.877,3.377,3.377,0,0,1,1.035-.427.39.39,0,0,1,.153.764,2.616,2.616,0,0,0-.789.333,1.385,1.385,0,0,0-.7,1.206,1.817,1.817,0,0,0,1.28,1.649.39.39,0,0,1-.11.764Z" transform="translate(-147.633 -431.95)" fill="#263238"/>
      <path id="Path_1474" data-name="Path 1474" d="M164.949,444.724a.392.392,0,0,1-.11-.016,2.968,2.968,0,0,1-.912-.494,2.362,2.362,0,0,1-.927-1.9,2.152,2.152,0,0,1,1.084-1.877,3.377,3.377,0,0,1,1.035-.427.39.39,0,0,1,.153.764,2.616,2.616,0,0,0-.789.333,1.385,1.385,0,0,0-.7,1.206,1.817,1.817,0,0,0,1.28,1.649.39.39,0,0,1-.11.764Z" transform="translate(-144.808 -431.95)" fill="#263238"/>
      <path id="Path_1475" data-name="Path 1475" d="M160.319,444.724a.392.392,0,0,1-.11-.016,2.968,2.968,0,0,1-.912-.494,2.362,2.362,0,0,1-.927-1.9,2.152,2.152,0,0,1,1.084-1.877,3.377,3.377,0,0,1,1.035-.427.39.39,0,0,1,.153.764,2.615,2.615,0,0,0-.789.333,1.385,1.385,0,0,0-.7,1.206,1.817,1.817,0,0,0,1.28,1.649.39.39,0,0,1-.11.764Z" transform="translate(-141.983 -431.95)" fill="#263238"/>
      <path id="Path_1476" data-name="Path 1476" d="M155.689,444.724a.392.392,0,0,1-.11-.016,2.968,2.968,0,0,1-.912-.494,2.362,2.362,0,0,1-.927-1.9,2.152,2.152,0,0,1,1.084-1.877,3.377,3.377,0,0,1,1.035-.427.39.39,0,0,1,.153.764,2.616,2.616,0,0,0-.789.333,1.385,1.385,0,0,0-.7,1.206,1.817,1.817,0,0,0,1.28,1.649.39.39,0,0,1-.11.764Z" transform="translate(-139.158 -431.95)" fill="#263238"/>
      <path id="Path_1477" data-name="Path 1477" d="M151.059,444.724a.392.392,0,0,1-.11-.016,2.967,2.967,0,0,1-.912-.494,2.362,2.362,0,0,1-.927-1.9,2.152,2.152,0,0,1,1.084-1.877,3.377,3.377,0,0,1,1.035-.427.39.39,0,0,1,.153.764,2.616,2.616,0,0,0-.789.333,1.385,1.385,0,0,0-.7,1.206,1.817,1.817,0,0,0,1.28,1.649.39.39,0,0,1-.11.764Z" transform="translate(-136.332 -431.95)" fill="#263238"/>
      <path id="Path_1478" data-name="Path 1478" d="M146.429,444.724a.392.392,0,0,1-.11-.016,2.968,2.968,0,0,1-.912-.494,2.362,2.362,0,0,1-.927-1.9,2.152,2.152,0,0,1,1.084-1.877,3.377,3.377,0,0,1,1.035-.427.39.39,0,0,1,.153.764,2.616,2.616,0,0,0-.789.333,1.385,1.385,0,0,0-.7,1.206,1.817,1.817,0,0,0,1.28,1.649.39.39,0,0,1-.11.764Z" transform="translate(-133.507 -431.95)" fill="#263238"/>
      <path id="Path_1479" data-name="Path 1479" d="M141.8,444.724a.392.392,0,0,1-.11-.016,2.968,2.968,0,0,1-.912-.494,2.362,2.362,0,0,1-.927-1.9,2.152,2.152,0,0,1,1.084-1.877,3.377,3.377,0,0,1,1.035-.427.39.39,0,0,1,.153.764,2.616,2.616,0,0,0-.789.333,1.385,1.385,0,0,0-.7,1.206,1.817,1.817,0,0,0,1.28,1.649.39.39,0,0,1-.11.764Z" transform="translate(-130.682 -431.95)" fill="#263238"/>
      <path id="Path_1480" data-name="Path 1480" d="M137.169,444.724a.392.392,0,0,1-.11-.016,2.968,2.968,0,0,1-.912-.494,2.362,2.362,0,0,1-.927-1.9,2.152,2.152,0,0,1,1.084-1.877,3.377,3.377,0,0,1,1.035-.427.39.39,0,0,1,.153.764,2.616,2.616,0,0,0-.789.333,1.385,1.385,0,0,0-.7,1.206,1.817,1.817,0,0,0,1.28,1.649.39.39,0,0,1-.11.764Z" transform="translate(-127.857 -431.95)" fill="#263238"/>
      <path id="Path_1481" data-name="Path 1481" d="M131.969,444.724a.392.392,0,0,1-.11-.016,2.967,2.967,0,0,1-.912-.494,2.362,2.362,0,0,1-.927-1.9,2.152,2.152,0,0,1,1.084-1.877,3.377,3.377,0,0,1,1.035-.427.39.39,0,0,1,.153.764,2.616,2.616,0,0,0-.789.333,1.385,1.385,0,0,0-.7,1.206,1.817,1.817,0,0,0,1.28,1.649.39.39,0,0,1-.11.764Z" transform="translate(-124.684 -431.95)" fill="#263238"/>
      <path id="Path_1482" data-name="Path 1482" d="M126.759,444.724a.393.393,0,0,1-.111-.016,2.968,2.968,0,0,1-.912-.494,2.362,2.362,0,0,1-.927-1.9,2.152,2.152,0,0,1,1.084-1.877,3.377,3.377,0,0,1,1.035-.427.39.39,0,0,1,.153.764,2.616,2.616,0,0,0-.789.333,1.385,1.385,0,0,0-.7,1.206,1.806,1.806,0,0,0,1.281,1.65.39.39,0,0,1-.112.763Z" transform="translate(-121.504 -431.95)" fill="#263238"/>
      <path id="Path_1483" data-name="Path 1483" d="M120.969,444.724a.392.392,0,0,1-.11-.016,2.967,2.967,0,0,1-.912-.494,2.362,2.362,0,0,1-.927-1.9,2.152,2.152,0,0,1,1.084-1.877,3.377,3.377,0,0,1,1.035-.427.39.39,0,0,1,.153.764,2.616,2.616,0,0,0-.789.333,1.385,1.385,0,0,0-.7,1.206,1.817,1.817,0,0,0,1.28,1.649.39.39,0,0,1-.11.764Z" transform="translate(-117.971 -431.95)" fill="#263238"/>
      <path id="Path_1484" data-name="Path 1484" d="M149.395,428.945a.146.146,0,0,1-.136-.2l1.1-2.736a10.188,10.188,0,0,1-3.757,2.443.146.146,0,0,1-.178-.2,6.675,6.675,0,0,1,2.873-3.129.146.146,0,1,1,.141.256,6.426,6.426,0,0,0-2.6,2.679,11.929,11.929,0,0,0,3.8-2.711.146.146,0,0,1,.236.161l-1.257,3.117a3.837,3.837,0,0,0,2.2-1.131.972.972,0,0,1,.569-.705.146.146,0,0,1,.182.211,4.087,4.087,0,0,1-.475.628.681.681,0,0,0,.045.3c1.013-.206,1.671-1.217,2.21-2.155a.146.146,0,0,1,.27.046,7.438,7.438,0,0,1,.128,1.572,5.152,5.152,0,0,0,2.584-.362.146.146,0,1,1,.113.27,5.445,5.445,0,0,1-2.868.364.146.146,0,0,1-.125-.151,7.145,7.145,0,0,0-.055-1.243,6.723,6.723,0,0,1-.813,1.109,2.559,2.559,0,0,1-1.506.857.146.146,0,0,1-.148-.072.971.971,0,0,1-.1-.27,4.124,4.124,0,0,1-2.423,1.049Z" transform="translate(-134.688 -422.862)" fill="#263238"/>
    </g>
    <g id="freepik--Box--inject-131" transform="translate(101.572 135.653)">
      <rect id="Rectangle_123" data-name="Rectangle 123" width="39.296" height="21.576" transform="translate(6.666 6.206)" fill="#fff"/>
      <path id="Rectangle_123_-_Outline" data-name="Rectangle 123 - Outline" d="M-.305-.5h39.3a.2.2,0,0,1,.195.195V21.27a.2.2,0,0,1-.195.195H-.305A.2.2,0,0,1-.5,21.27V-.305A.2.2,0,0,1-.305-.5Zm39.1.39H-.11V21.076H38.8Z" transform="translate(6.971 6.511)" fill="#263238"/>
      <path id="Path_1485" data-name="Path 1485" d="M297.519,400.9,291.2,394.9V373.32l6.319,6.011Z" transform="translate(-291.005 -373.125)" fill="#fff"/>
      <path id="Path_1485_-_Outline" data-name="Path 1485 - Outline" d="M297.214,400.792a.2.2,0,0,1-.134-.054l-6.319-6.007a.194.194,0,0,1-.061-.141V373.015a.195.195,0,0,1,.329-.141l6.319,6.011a.2.2,0,0,1,.061.141V400.6a.195.195,0,0,1-.195.195Zm-6.124-6.285,5.929,5.636V379.109l-5.929-5.64Z" transform="translate(-290.7 -372.82)" fill="#263238"/>
      <path id="Path_1486" data-name="Path 1486" d="M337.211,379.331l-6.319-6.011H291.6l6.315,6.011Z" transform="translate(-291.249 -373.125)" fill="#fff"/>
      <path id="Path_1486_-_Outline" data-name="Path 1486 - Outline" d="M336.906,379.221h-39.3a.2.2,0,0,1-.134-.054l-6.315-6.011a.195.195,0,0,1,.134-.336h39.292a.2.2,0,0,1,.134.054l6.319,6.011a.195.195,0,0,1-.134.336Zm-39.218-.39h38.73l-5.909-5.621H291.782Z" transform="translate(-290.944 -372.82)" fill="#263238"/>
      <path id="Path_1487" data-name="Path 1487" d="M352.508,403.813h-3.473V400.18h-4.9v3.633H340.35v4.9h3.789v3.629h4.9v-3.629h3.473Z" transform="translate(-320.996 -389.515)" fill="#2093aa"/>
      <path id="Path_1487_-_Outline" data-name="Path 1487 - Outline" d="M343.639,399.68h5.286v3.633H352.4V408.6h-3.473v3.629h-5.286V408.6H339.85v-5.286h3.789Zm4.9.39h-4.506V403.7H340.24v4.506h3.789v3.629h4.506v-3.629h3.473V403.7h-3.473Z" transform="translate(-320.691 -389.21)" fill="#263238"/>
      <path id="Line_12" data-name="Line 12" d="M6.014,5.9a.194.194,0,0,1-.134-.054L-.439-.164A.2.2,0,0,1-.446-.439.2.2,0,0,1-.171-.446L6.148,5.564a.195.195,0,0,1-.134.336Z" transform="translate(19.959 0.5)" fill="#263238"/>
    </g>
    <g id="freepik--Medicine--inject-131" transform="translate(12.027 0)">
      <circle id="Ellipse_46" data-name="Ellipse 46" cx="11.737" cy="11.737" r="11.737" transform="translate(7.892 42.371) rotate(-45)" fill="#fff"/>
      <path id="Ellipse_46_-_Outline" data-name="Ellipse 46 - Outline" d="M11.932,0a11.935,11.935,0,0,1,4.644,22.926A11.935,11.935,0,0,1,7.287.938,11.857,11.857,0,0,1,11.932,0Zm0,23.474A11.542,11.542,0,1,0,.39,11.932,11.555,11.555,0,0,0,11.932,23.474Z" transform="translate(7.617 42.371) rotate(-45)" fill="#263238"/>
      <path id="Path_1488" data-name="Path 1488" d="M118.059,121.767a3.757,3.757,0,0,1-2.553,3.559l-5.243,1.766-6.381,2.156a3.75,3.75,0,1,1-2.4-7.106l5.8-1.949,5.824-1.949a3.754,3.754,0,0,1,4.95,3.543Z" transform="translate(-83.806 -81.195)" fill="#fff"/>
      <path id="Path_1489" data-name="Path 1489" d="M131.128,121.761a3.758,3.758,0,0,1-2.553,3.559l-5.243,1.766a10.856,10.856,0,0,0-2.982-6.9l5.824-1.949a3.754,3.754,0,0,1,4.95,3.543Z" transform="translate(-96.931 -81.189)" fill="#2093aa"/>
      <path id="Path_1490" data-name="Path 1490" d="M113.994,117.547a3.949,3.949,0,0,1,3.948,3.872.2.2,0,0,1,0,.042,3.95,3.95,0,0,1-2.685,3.743l-5.244,1.766-6.381,2.156a3.945,3.945,0,1,1-2.522-7.476l5.8-1.949,5.824-1.949A3.94,3.94,0,0,1,113.994,117.547Zm3.563,3.971a.2.2,0,0,1,0-.036,3.559,3.559,0,0,0-4.693-3.359l-5.824,1.949-5.8,1.949a3.555,3.555,0,1,0,2.273,6.737l6.381-2.156,5.243-1.766A3.56,3.56,0,0,0,117.557,121.518Z" transform="translate(-83.499 -80.89)" fill="#263238"/>
      <path id="Path_1491" data-name="Path 1491" d="M123.027,130.333a.2.2,0,0,1-.195-.186,10.424,10.424,0,0,0-2.927-6.777.195.195,0,1,1,.28-.271,10.813,10.813,0,0,1,3.037,7.03.2.2,0,0,1-.186.2Z" transform="translate(-96.57 -84.241)" fill="#263238"/>
      <path id="Path_1492" data-name="Path 1492" d="M144.834,125.262h0a.2.2,0,0,1-.19-.2,2.367,2.367,0,0,0-.331-1.268.195.195,0,1,1,.335-.2,2.757,2.757,0,0,1,.386,1.476A.2.2,0,0,1,144.834,125.262Z" transform="translate(-111.55 -84.522)" fill="#fff"/>
      <path id="Path_1493" data-name="Path 1493" d="M123.845,122.193a.195.195,0,0,1-.062-.38l4.678-1.559a3.184,3.184,0,0,1,2.713.3.195.195,0,0,1-.2.332,2.8,2.8,0,0,0-2.384-.266l-4.679,1.56A.2.2,0,0,1,123.845,122.193Z" transform="translate(-98.946 -82.436)" fill="#fff"/>
      <circle id="Ellipse_47" data-name="Ellipse 47" cx="11.737" cy="11.737" r="11.737" transform="matrix(0.921, -0.39, 0.39, 0.921, 84.048, 9.405)" fill="#fff"/>
      <path id="Ellipse_47_-_Outline" data-name="Ellipse 47 - Outline" d="M11.932,0a11.935,11.935,0,0,1,4.644,22.926A11.935,11.935,0,0,1,7.287.938,11.857,11.857,0,0,1,11.932,0Zm0,23.474A11.542,11.542,0,1,0,.39,11.932,11.555,11.555,0,0,0,11.932,23.474Z" transform="matrix(0.921, -0.39, 0.39, 0.921, 83.792, 9.301)" fill="#263238"/>
      <path id="Path_1494" data-name="Path 1494" d="M306.552,60.54l-10.236-3.426a3.387,3.387,0,0,1-2.132-4.288h0a3.387,3.387,0,0,1,4.288-2.132l10.236,3.422A3.391,3.391,0,0,1,310.84,58.4h0A3.391,3.391,0,0,1,306.552,60.54Z" transform="translate(-203.066 -39.988)" fill="#2093aa"/>
      <path id="Line_13" data-name="Line 13" d="M-.305,3.987A.194.194,0,0,1-.38,3.971a.2.2,0,0,1-.1-.255L1.23-.38a.2.2,0,0,1,.255-.1.2.2,0,0,1,.1.255l-1.715,4.1A.2.2,0,0,1-.305,3.987Z" transform="translate(96.303 13.061)" fill="#263238"/>
      <path id="Line_14" data-name="Line 14" d="M-.305,3.975A.194.194,0,0,1-.38,3.96a.2.2,0,0,1-.1-.255L1.222-.38a.2.2,0,0,1,.255-.1.2.2,0,0,1,.1.255L-.125,3.855A.2.2,0,0,1-.305,3.975Z" transform="translate(101.931 14.948)" fill="#263238"/>
      <circle id="Ellipse_48" data-name="Ellipse 48" cx="0.347" cy="0.347" r="0.347" transform="translate(97.065 16.401)" fill="#263238"/>
      <path id="Path_1495" data-name="Path 1495" d="M318.244,68.547a.347.347,0,1,1-.347-.347A.347.347,0,0,1,318.244,68.547Z" transform="translate(-217.428 -50.778)" fill="#263238"/>
      <circle id="Ellipse_49" data-name="Ellipse 49" cx="0.347" cy="0.347" r="0.347" transform="translate(98.407 13.313)" fill="#263238"/>
      <path id="Path_1496" data-name="Path 1496" d="M321.564,60.547a.347.347,0,1,1-.347-.347.347.347,0,0,1,.347.347Z" transform="translate(-219.457 -45.897)" fill="#263238"/>
      <path id="Path_1497" data-name="Path 1497" d="M307.322,60.6a3.58,3.58,0,0,1-1.135-.185L295.95,56.993a3.581,3.581,0,1,1,2.279-6.79l10.236,3.422a3.583,3.583,0,0,1-1.144,6.979Zm-10.232-10.2a3.192,3.192,0,0,0-1.016,6.217L306.31,60.05A3.193,3.193,0,0,0,308.341,54l-10.236-3.422A3.188,3.188,0,0,0,297.09,50.407Z" transform="translate(-202.762 -39.683)" fill="#263238"/>
      <circle id="Ellipse_50" data-name="Ellipse 50" cx="11.737" cy="11.737" r="11.737" transform="translate(43.506 3.264)" fill="#fff"/>
      <path id="Ellipse_50_-_Outline" data-name="Ellipse 50 - Outline" d="M11.432-.5a11.935,11.935,0,0,1,4.644,22.926A11.935,11.935,0,0,1,6.787.438,11.857,11.857,0,0,1,11.432-.5Zm0,23.474A11.542,11.542,0,1,0-.11,11.432,11.555,11.555,0,0,0,11.432,22.974Z" transform="translate(43.812 3.569)" fill="#263238"/>
      <path id="Path_1498" data-name="Path 1498" d="M198.338,54.931v4.81a2.019,2.019,0,0,1-1.735,2.21h-9.979a2.016,2.016,0,0,1-1.735-2.21v-4.81a2.019,2.019,0,0,1,1.735-2.21h1.641V49.93h6.627v2.791h1.7A2.019,2.019,0,0,1,198.338,54.931Z" transform="translate(-136.375 -39.63)" fill="#fff"/>
      <path id="Path_1498_-_Outline" data-name="Path 1498 - Outline" d="M187.961,49.43h6.627a.2.2,0,0,1,.195.195v2.6h1.5a1.766,1.766,0,0,1,1.389.722,2.718,2.718,0,0,1,.553,1.683v4.81a2.21,2.21,0,0,1-1.93,2.405h-9.979a1.752,1.752,0,0,1-1.38-.722,2.728,2.728,0,0,1-.549-1.683v-4.81a2.21,2.21,0,0,1,1.929-2.405h1.446v-2.6A.2.2,0,0,1,187.961,49.43Zm6.432.39h-6.237v2.6a.2.2,0,0,1-.195.195h-1.641a1.828,1.828,0,0,0-1.54,2.015v4.81a1.828,1.828,0,0,0,1.54,2.015H196.3a1.828,1.828,0,0,0,1.54-2.015v-4.81a1.832,1.832,0,0,0-1.551-2.015h-1.7a.2.2,0,0,1-.195-.195Z" transform="translate(-136.069 -39.325)" fill="#263238"/>
      <rect id="Rectangle_124" data-name="Rectangle 124" width="13.444" height="2.982" transform="translate(48.515 15.855)" fill="#2093aa"/>
      <path id="Rectangle_124_-_Outline" data-name="Rectangle 124 - Outline" d="M-.5-.5H13.334V2.872H-.5Zm13.444.39H-.11V2.482H12.944Z" transform="translate(48.821 16.16)" fill="#263238"/>
      <path id="Path_1499" data-name="Path 1499" d="M192.611,41.55h4.927a2.1,2.1,0,0,1,2.1,2.1v2.179H190.51V43.647a2.1,2.1,0,0,1,2.1-2.1Z" transform="translate(-139.805 -34.516)" fill="#2093aa"/>
      <path id="Path_1499_-_Outline" data-name="Path 1499 - Outline" d="M192.3,41.05h4.931a2.3,2.3,0,0,1,2.292,2.292v2.374H190.01V43.342A2.292,2.292,0,0,1,192.3,41.05Zm6.833,4.276V43.342a1.9,1.9,0,0,0-1.9-1.9H192.3a1.9,1.9,0,0,0-1.9,1.9v1.984Z" transform="translate(-139.5 -34.211)" fill="#263238"/>
      <path id="Line_15" data-name="Line 15" d="M-.305,4.033A.2.2,0,0,1-.5,3.838V-.305A.2.2,0,0,1-.305-.5.2.2,0,0,1-.11-.305V3.838A.2.2,0,0,1-.305,4.033Z" transform="translate(52.608 7.471)" fill="#263238"/>
      <path id="Line_16" data-name="Line 16" d="M-.305,4.166A.2.2,0,0,1-.5,3.971V-.305A.2.2,0,0,1-.305-.5.2.2,0,0,1-.11-.305V3.971A.2.2,0,0,1-.305,4.166Z" transform="translate(54.759 7.339)" fill="#263238"/>
      <path id="Line_17" data-name="Line 17" d="M-.305,4.166A.2.2,0,0,1-.5,3.971V-.305A.2.2,0,0,1-.305-.5.2.2,0,0,1-.11-.305V3.971A.2.2,0,0,1-.305,4.166Z" transform="translate(56.909 7.339)" fill="#263238"/>
      <path id="Line_18" data-name="Line 18" d="M-.305,3.924A.2.2,0,0,1-.5,3.729V-.305A.2.2,0,0,1-.305-.5.2.2,0,0,1-.11-.305V3.729A.2.2,0,0,1-.305,3.924Z" transform="translate(59.06 7.58)" fill="#263238"/>
      <circle id="Ellipse_51" data-name="Ellipse 51" cx="11.737" cy="11.737" r="11.737" transform="translate(0.224 86.95) rotate(-80.69)" fill="#fff"/>
      <path id="Ellipse_51_-_Outline" data-name="Ellipse 51 - Outline" d="M11.932,0a11.935,11.935,0,0,1,4.644,22.926A11.935,11.935,0,0,1,7.287.938,11.857,11.857,0,0,1,11.932,0Zm0,23.474A11.542,11.542,0,1,0,.39,11.932,11.555,11.555,0,0,0,11.932,23.474Z" transform="translate(0 87.11) rotate(-80.69)" fill="#263238"/>
      <ellipse id="Ellipse_52" data-name="Ellipse 52" cx="5.414" cy="6.903" rx="5.414" ry="6.903" transform="translate(4.863 79.286) rotate(-64.69)" fill="#2093aa"/>
      <path id="Ellipse_52_-_Outline" data-name="Ellipse 52 - Outline" d="M5.609,0a4.593,4.593,0,0,1,2.2.566A5.73,5.73,0,0,1,9.591,2.1a8.109,8.109,0,0,1,1.627,5,8.109,8.109,0,0,1-1.627,5,5.73,5.73,0,0,1-1.782,1.531,4.56,4.56,0,0,1-4.4,0A5.73,5.73,0,0,1,1.627,12.1,8.109,8.109,0,0,1,0,7.1a8.109,8.109,0,0,1,1.627-5A5.73,5.73,0,0,1,3.409.566,4.593,4.593,0,0,1,5.609,0Zm0,13.807c2.878,0,5.219-3.009,5.219-6.708S8.487.39,5.609.39.39,3.4.39,7.1,2.731,13.807,5.609,13.807Z" transform="translate(4.603 79.379) rotate(-64.69)" fill="#263238"/>
      <ellipse id="Ellipse_53" data-name="Ellipse 53" cx="5.079" cy="6.903" rx="5.079" ry="6.903" transform="translate(5.432 78.063) rotate(-64.69)" fill="#2093aa"/>
      <path id="Ellipse_53_-_Outline" data-name="Ellipse 53 - Outline" d="M5.274,0A4.12,4.12,0,0,1,7.348.568,5.494,5.494,0,0,1,9.022,2.1a8.462,8.462,0,0,1,1.526,5,8.462,8.462,0,0,1-1.526,5,5.494,5.494,0,0,1-1.674,1.533,4.068,4.068,0,0,1-4.148,0A5.494,5.494,0,0,1,1.526,12.1,8.462,8.462,0,0,1,0,7.1a8.462,8.462,0,0,1,1.526-5A5.494,5.494,0,0,1,3.2.568,4.12,4.12,0,0,1,5.274,0Zm0,13.807c2.693,0,4.884-3.009,4.884-6.708S7.967.39,5.274.39.39,3.4.39,7.1,2.581,13.807,5.274,13.807Z" transform="translate(5.173 78.156) rotate(-64.69)" fill="#263238"/>
      <path id="Line_19" data-name="Line 19" d="M-.305,5.881a.194.194,0,0,1-.113-.036.2.2,0,0,1-.046-.272L3.8-.418a.2.2,0,0,1,.272-.046.2.2,0,0,1,.046.272L-.146,5.8A.2.2,0,0,1-.305,5.881Z" transform="translate(11.879 73.258)" fill="#263238"/>
      <path id="Path_1500" data-name="Path 1500" d="M95.545,208.45a.194.194,0,0,1-.062-.01,9.019,9.019,0,0,0-1.644-.382.195.195,0,0,1,.052-.386,9.411,9.411,0,0,1,1.716.4.195.195,0,0,1-.062.38Z" transform="translate(-80.595 -135.883)" fill="#fff"/>
      <path id="Path_1501" data-name="Path 1501" d="M82.62,213.743a.194.194,0,0,1-.144-.063,4.517,4.517,0,0,1-.864-1.551,3.3,3.3,0,0,1,.814-3.391l0,0a3.468,3.468,0,0,1,1.929-.992.195.195,0,1,1,.06.385A3.076,3.076,0,0,0,82.71,209,2.9,2.9,0,0,0,81.98,212a4.2,4.2,0,0,0,.784,1.418.195.195,0,0,1-.144.326Z" transform="translate(-73.135 -135.925)" fill="#fff"/>
      <circle id="Ellipse_54" data-name="Ellipse 54" cx="11.737" cy="11.737" r="11.737" transform="translate(123.523 86.956) rotate(-80.69)" fill="#fff"/>
      <path id="Ellipse_54_-_Outline" data-name="Ellipse 54 - Outline" d="M11.932,0a11.935,11.935,0,0,1,4.644,22.926A11.935,11.935,0,0,1,7.287.938,11.857,11.857,0,0,1,11.932,0Zm0,23.474A11.542,11.542,0,1,0,.39,11.932,11.555,11.555,0,0,0,11.932,23.474Z" transform="translate(123.299 87.117) rotate(-80.69)" fill="#263238"/>
      <path id="Path_1502" data-name="Path 1502" d="M406.25,214.7c-.09.129-.179.261-.273.39-1.758,2.436-4.467,4.709-6.475,5.157v-.031c-1.949-.437-4.572-2.6-6.33-4.962-.1-.129-.191-.261-.281-.39-1.692-2.425-2.405-4.97-.522-6.022,3.828-2.136,7.133,2.444,7.133,2.444s3.313-4.545,7.133-2.413C408.468,209.894,407.841,212.334,406.25,214.7Z" transform="translate(-262.511 -136.251)" fill="#2093aa"/>
      <path id="Path_1502_-_Outline" data-name="Path 1502 - Outline" d="M399,220.185v-.121a9.124,9.124,0,0,1-3.163-1.76,17.963,17.963,0,0,1-3.129-3.239c-.1-.131-.2-.268-.284-.395-1.315-1.884-1.885-3.591-1.606-4.805a2.243,2.243,0,0,1,1.148-1.5,4.462,4.462,0,0,1,2.192-.592,4.914,4.914,0,0,1,2.077.489,7.561,7.561,0,0,1,1.64,1.062,9.886,9.886,0,0,1,1.32,1.338,9.853,9.853,0,0,1,1.319-1.324,7.568,7.568,0,0,1,1.638-1.052,4.938,4.938,0,0,1,2.073-.484,4.474,4.474,0,0,1,2.2.594,2.238,2.238,0,0,1,1.143,1.475,4.007,4.007,0,0,1-.206,2.194,10.474,10.474,0,0,1-1.256,2.438l0,0-.078.112c-.064.092-.13.188-.2.281a17.981,17.981,0,0,1-3.179,3.361,8.91,8.91,0,0,1-3.411,1.872Zm-4.842-12.022a4.077,4.077,0,0,0-2,.543,1.868,1.868,0,0,0-.958,1.246,3.746,3.746,0,0,0,.237,2.062,10.541,10.541,0,0,0,1.309,2.433c.086.124.18.256.276.384a17.563,17.563,0,0,0,3.06,3.168,8.421,8.421,0,0,0,3.158,1.721l.023.005c1.854-.472,4.461-2.575,6.251-5.055.065-.09.13-.183.192-.274l.078-.112c1.16-1.727,1.66-3.262,1.405-4.322a1.863,1.863,0,0,0-.953-1.225,4.089,4.089,0,0,0-2.008-.545,5.666,5.666,0,0,0-3.455,1.44,9.171,9.171,0,0,0-1.418,1.462l-.158.217-.157-.218a9.2,9.2,0,0,0-1.419-1.476A5.647,5.647,0,0,0,394.162,208.163Z" transform="translate(-262.207 -135.946)" fill="#263238"/>
      <path id="Path_1503" data-name="Path 1503" d="M408.819,218.6c-.09.129-.179.261-.273.39h-.967l-1.107,1.462-.752-4.335-1.169,2.947h-2.764l-1.415,2.358-1.091-4.775-1.407,2.491h-2.132c-.1-.129-.191-.261-.281-.39h2.187l1.789-3.169,1.1,4.814,1.041-1.735H404.3l1.559-3.992.834,4.818.682-.9Z" transform="translate(-265.079 -140.154)" fill="#fff"/>
      <circle id="Ellipse_55" data-name="Ellipse 55" cx="11.737" cy="11.737" r="11.737" transform="translate(113.967 30.765)" fill="#fff"/>
      <path id="Ellipse_55_-_Outline" data-name="Ellipse 55 - Outline" d="M11.432-.5a11.935,11.935,0,0,1,4.644,22.926A11.935,11.935,0,0,1,6.787.438,11.857,11.857,0,0,1,11.432-.5Zm0,23.474A11.542,11.542,0,1,0-.11,11.432,11.555,11.555,0,0,0,11.432,22.974Z" transform="translate(114.272 31.07)" fill="#263238"/>
      <path id="Path_1504" data-name="Path 1504" d="M375.635,118.435c.113.253-.592.815-1.559,1.255s-1.871.592-1.984.335.589-.815,1.559-1.255S375.518,118.193,375.635,118.435Z" transform="translate(-250.812 -81.359)" fill="#fff"/>
      <path id="Path_1504_-_Outline" data-name="Path 1504 - Outline" d="M374.982,117.816c.272,0,.448.077.521.228l0,.005c.1.22-.043.478-.431.789a6.019,6.019,0,0,1-1.226.723,4.758,4.758,0,0,1-1.72.478c-.277,0-.453-.081-.523-.242-.1-.221.043-.48.43-.789a6,6,0,0,1,1.227-.722A4.742,4.742,0,0,1,374.982,117.816Zm.15.4a.611.611,0,0,0-.15-.015,4.424,4.424,0,0,0-1.558.436,5.917,5.917,0,0,0-1.07.613,1.262,1.262,0,0,0-.378.379.549.549,0,0,0,.153.016,4.445,4.445,0,0,0,1.558-.443,5.942,5.942,0,0,0,1.066-.613A1.342,1.342,0,0,0,375.132,118.221Z" transform="translate(-250.505 -81.054)" fill="#263238"/>
      <path id="Path_1505" data-name="Path 1505" d="M380.917,129.373l-3.512,1.7-3.15-6.486L372.08,120.1l3.512-1.7,2.121,4.374Z" transform="translate(-250.812 -81.41)" fill="#fff"/>
      <path id="Path_1505_-_Outline" data-name="Path 1505 - Outline" d="M377.1,130.962a.2.2,0,0,1-.175-.11l-3.15-6.486-2.175-4.483a.195.195,0,0,1,.09-.26l3.512-1.7a.195.195,0,0,1,.26.09l2.121,4.374,3.2,6.6a.195.195,0,0,1-.09.261l-3.512,1.7A.194.194,0,0,1,377.1,130.962Zm-5.064-11.074,2.09,4.307,3.065,6.311,3.161-1.53-3.119-6.424-2.036-4.2Z" transform="translate(-250.507 -81.105)" fill="#263238"/>
      <path id="Path_1506" data-name="Path 1506" d="M373.75,125.1l1.524-.706" transform="translate(-251.831 -85.065)" fill="#2093aa"/>
      <path id="Path_1506_-_Outline" data-name="Path 1506 - Outline" d="M373.445,124.985a.195.195,0,0,1-.082-.372l1.524-.706a.195.195,0,0,1,.164.354l-1.524.706A.194.194,0,0,1,373.445,124.985Z" transform="translate(-251.526 -84.76)" fill="#263238"/>
      <path id="Path_1507" data-name="Path 1507" d="M375.45,128.716l1.524-.706" transform="translate(-252.869 -87.274)" fill="#2093aa"/>
      <path id="Path_1507_-_Outline" data-name="Path 1507 - Outline" d="M375.145,128.605a.195.195,0,0,1-.082-.372l1.524-.706a.195.195,0,1,1,.164.354l-1.524.706A.194.194,0,0,1,375.145,128.605Z" transform="translate(-252.564 -86.969)" fill="#263238"/>
      <path id="Path_1508" data-name="Path 1508" d="M389.19,148.55,391,150.928l-.9-2.818Z" transform="translate(-261.253 -99.539)" fill="#fff"/>
      <path id="Path_1508_-_Outline" data-name="Path 1508 - Outline" d="M389.793,147.61a.195.195,0,0,1,.186.135l.9,2.818a.195.195,0,0,1-.341.178l-1.813-2.378a.195.195,0,0,1,.07-.294l.908-.44A.2.2,0,0,1,389.793,147.61Zm.373,1.994-.49-1.526-.492.239Z" transform="translate(-260.948 -99.234)" fill="#263238"/>
      <path id="Path_1509" data-name="Path 1509" d="M384.322,136.219h0a5.847,5.847,0,0,1-3.013,1.606l-.5.094-3.15-6.486,3.458-1.813Z" transform="translate(-254.217 -88.257)" fill="#2093aa"/>
      <path id="Path_1509_-_Outline" data-name="Path 1509 - Outline" d="M380.3,137.722l-3.3-6.79,3.8-1.994,3.353,6.9-.1.1a6.021,6.021,0,0,1-3.114,1.66Zm-2.781-6.62,3,6.182.353-.066a5.629,5.629,0,0,0,2.812-1.456l-3.055-6.292Z" transform="translate(-253.814 -87.84)" fill="#263238"/>
      <path id="Line_20" data-name="Line 20" d="M-.305.552A.2.2,0,0,1-.482.439a.2.2,0,0,1,.1-.259L1.048-.482a.2.2,0,0,1,.259.1.2.2,0,0,1-.1.259L-.223.534A.194.194,0,0,1-.305.552Z" transform="translate(124.41 44.05)" fill="#263238"/>
      <path id="Path_1510" data-name="Path 1510" d="M381.38,140.293l1.407-.643" transform="translate(-256.487 -94.377)" fill="#2093aa"/>
      <path id="Path_1510_-_Outline" data-name="Path 1510 - Outline" d="M381.075,140.183a.195.195,0,0,1-.081-.372l1.407-.643a.195.195,0,0,1,.162.355l-1.407.643A.194.194,0,0,1,381.075,140.183Z" transform="translate(-256.182 -94.072)" fill="#263238"/>
      <path id="Path_1511" data-name="Path 1511" d="M373.461,116.564l-1.111-2.5.873-.5,1.2,2.53Z" transform="translate(-250.977 -78.463)" fill="#fff"/>
      <path id="Path_1511_-_Outline" data-name="Path 1511 - Outline" d="M373.156,116.453a.195.195,0,0,1-.178-.116l-1.111-2.5a.2.2,0,0,1,.082-.249l.873-.5a.195.195,0,0,1,.272.086l1.2,2.53a.2.2,0,0,1-.091.259l-.959.464A.2.2,0,0,1,373.156,116.453Zm-.861-2.611.957,2.153.6-.292-1.024-2.165Z" transform="translate(-250.672 -78.158)" fill="#263238"/>
      <path id="Path_1512" data-name="Path 1512" d="M372.353,111.875l-.265-.585-4.678,2.093.265.585c.109.249,1.244-.023,2.538-.6S372.462,112.12,372.353,111.875Z" transform="translate(-247.903 -77.072)" fill="#fff"/>
      <path id="Path_1512_-_Outline" data-name="Path 1512 - Outline" d="M371.782,110.79a.2.2,0,0,1,.178.114l.265.585c.1.231-.086.5-.61.862a10.241,10.241,0,0,1-1.628.889,7.22,7.22,0,0,1-2.353.71c-.232,0-.381-.07-.442-.208l-.265-.584a.195.195,0,0,1,.1-.258l4.678-2.093A.194.194,0,0,1,371.782,110.79Zm.072.826-.17-.374-4.322,1.934.17.376a.451.451,0,0,0,.1.009,7.128,7.128,0,0,0,2.194-.676,10.425,10.425,0,0,0,1.452-.776A1.809,1.809,0,0,0,371.855,111.616Z" transform="translate(-247.598 -76.766)" fill="#263238"/>
      <path id="Path_1513" data-name="Path 1513" d="M372.074,111.148c-.109-.246-1.247.023-2.538.6s-2.249,1.247-2.14,1.493,1.247-.023,2.538-.6S372.184,111.393,372.074,111.148Z" transform="translate(-247.889 -76.929)" fill="#fff"/>
      <path id="Path_1513_-_Outline" data-name="Path 1513 - Outline" d="M371.5,110.557h0c.232,0,.381.07.441.207.1.229-.087.493-.612.858a10.626,10.626,0,0,1-1.626.888,7.234,7.234,0,0,1-2.355.712c-.232,0-.38-.07-.441-.207-.1-.229.087-.495.612-.861a10.331,10.331,0,0,1,1.627-.889A7.162,7.162,0,0,1,371.5,110.557Zm.029.39H371.5a6.873,6.873,0,0,0-2.195.674,10.519,10.519,0,0,0-1.451.776,2.465,2.465,0,0,0-.535.434h.029a6.829,6.829,0,0,0,2.195-.678,10.86,10.86,0,0,0,1.45-.776A2.488,2.488,0,0,0,371.532,110.947Z" transform="translate(-247.583 -76.624)" fill="#263238"/>
    </g>
  </g>
</svg>
