<svg xmlns="http://www.w3.org/2000/svg" width="86" height="86" viewBox="0 0 86 86">
  <g id="Patient" transform="translate(-1577 -177)">
    <g id="Rectangle_135" data-name="Rectangle 135" transform="translate(1577 177)" fill="#fff" stroke="#2093aa" stroke-width="1">
      <rect width="86" height="86" rx="8" stroke="none"/>
      <rect x="0.5" y="0.5" width="85" height="85" rx="7.5" fill="none"/>
    </g>
    <g id="Group_154" data-name="Group 154" transform="translate(3529.207 -7920.793)">
      <rect id="Rectangle_147" data-name="Rectangle 147" width="76" height="76" transform="translate(-1947.207 8102.793)" fill="none"/>
      <g id="Patient-2" data-name="Patient" transform="translate(-1936.263 8113.737)">
        <path id="Path_1527" data-name="Path 1527" d="M52.534,39.241H52.4A7.611,7.611,0,0,1,45,31.992a7.531,7.531,0,0,1,3.763-6.782V7.263a3.763,3.763,0,1,1,7.526,0V25.212a7.588,7.588,0,0,1,2.563,2.442,7.514,7.514,0,0,1-6.318,11.587Zm-.008-33.86a1.884,1.884,0,0,0-1.882,1.882V25.778a.941.941,0,0,1-.537.85,5.636,5.636,0,0,0,2.321,10.731h.106a5.633,5.633,0,0,0,5.636-5.636,5.689,5.689,0,0,0-3.229-5.1.941.941,0,0,1-.534-.849V7.263A1.884,1.884,0,0,0,52.526,5.382Z" transform="translate(-6.335 -3.5)" fill="#2093aa"/>
        <path id="Path_1528" data-name="Path 1528" d="M55.585,15.382H49.941a.941.941,0,0,1,0-1.882h5.645a.941.941,0,0,1,0,1.882Z" transform="translate(-6.572 -4.244)" fill="#2093aa"/>
        <path id="Path_1529" data-name="Path 1529" d="M49.822,25.382H47.941a.941.941,0,1,1,0-1.882h1.882a.941.941,0,0,1,0,1.882Z" transform="translate(-6.297 -4.987)" fill="#2093aa"/>
        <path id="Path_1530" data-name="Path 1530" d="M49.763,20.382H46.941a.941.941,0,1,1,0-1.882h2.822a.941.941,0,1,1,0,1.882Z" transform="translate(-6.235 -4.616)" fill="#2093aa"/>
        <path id="Path_1531" data-name="Path 1531" d="M49.822,15.382H47.941a.941.941,0,1,1,0-1.882h1.882a.941.941,0,0,1,0,1.882Z" transform="translate(-6.297 -4.244)" fill="#2093aa"/>
        <path id="Path_1532" data-name="Path 1532" d="M49.763,10.382H46.941a.941.941,0,1,1,0-1.882h2.822a.941.941,0,0,1,0,1.882Z" transform="translate(-6.235 -3.796)" fill="#2093aa"/>
        <path id="Path_1533" data-name="Path 1533" d="M45.335,60.079H3.941A.941.941,0,0,1,3,59.138V46.607a6.577,6.577,0,0,1,4.983-6.388l10.782-2.691a.941.941,0,1,1,.456,1.826L8.44,42.044a4.7,4.7,0,0,0-3.558,4.563V58.2H44.394V46.607a4.7,4.7,0,0,0-3.559-4.563l-10.78-2.69a.941.941,0,1,1,.456-1.826l10.781,2.691a6.578,6.578,0,0,1,4.984,6.388V59.138A.941.941,0,0,1,45.335,60.079Z" transform="translate(-3 -6.362)" fill="#2093aa"/>
        <path id="Path_1534" data-name="Path 1534" d="M25.289,36.2A11.283,11.283,0,0,1,14,24.908V16.441a.941.941,0,1,1,1.882,0v8.467a9.408,9.408,0,1,0,18.816,0V16.441a.941.941,0,1,1,1.882,0v8.467A11.283,11.283,0,0,1,25.289,36.2Z" transform="translate(-3.926 -4.493)" fill="#2093aa"/>
        <path id="Path_1535" data-name="Path 1535" d="M25.585,46.683A6.593,6.593,0,0,1,19,40.1V34.651a.941.941,0,0,1,1.882,0V40.1a4.7,4.7,0,1,0,9.408,0V34.651a.941.941,0,0,1,1.882,0V40.1A6.593,6.593,0,0,1,25.585,46.683Z" transform="translate(-4.256 -5.869)" fill="#2093aa"/>
        <path id="Path_1536" data-name="Path 1536" d="M38.822,25.026H36.941a.941.941,0,0,1,0-1.882h1.882a.942.942,0,0,0,.941-.941V20.322a.942.942,0,0,0-.941-.941H36.941a.941.941,0,0,1,0-1.882h1.882a2.826,2.826,0,0,1,2.822,2.822V22.2A2.826,2.826,0,0,1,38.822,25.026Z" transform="translate(-5.493 -4.567)" fill="#2093aa"/>
        <path id="Path_1537" data-name="Path 1537" d="M14.7,25.026H12.822A2.826,2.826,0,0,1,10,22.2V20.322A2.826,2.826,0,0,1,12.822,17.5H14.7a.941.941,0,1,1,0,1.882H12.822a.942.942,0,0,0-.941.941V22.2a.942.942,0,0,0,.941.941H14.7a.941.941,0,1,1,0,1.882Z" transform="translate(-3.415 -4.567)" fill="#2093aa"/>
        <path id="Path_1538" data-name="Path 1538" d="M35.638,16.671a12.948,12.948,0,0,1-8.108-2.838l.119.358a1.88,1.88,0,0,1-1.786,2.48,6.947,6.947,0,0,1-5.845-3.18,5.652,5.652,0,0,1-5.078,3.18A.941.941,0,0,1,14,15.73V10.085A6.593,6.593,0,0,1,20.585,3.5h9.408a6.593,6.593,0,0,1,6.585,6.585V15.73A.941.941,0,0,1,35.638,16.671ZM19.645,9.145a.941.941,0,0,1,.892.643l.508,1.524a5.069,5.069,0,0,0,4.818,3.477h0v0l-1.468-4.4a.941.941,0,0,1,1.615-.9L27.1,10.79A11.066,11.066,0,0,0,34.7,14.75V10.085a4.709,4.709,0,0,0-4.7-4.7H20.585a4.709,4.709,0,0,0-4.7,4.7V14.67A3.77,3.77,0,0,0,18.7,11.026v-.941a.941.941,0,0,1,.941-.941Z" transform="translate(-3.926 -3.5)" fill="#2093aa"/>
        <path id="Path_1539" data-name="Path 1539" d="M31.352,22.322a.94.94,0,0,1-.522-.158l-1.411-.941a.941.941,0,0,1,1.044-1.566l.889.593.889-.593a.941.941,0,0,1,1.044,1.566l-1.411.941A.94.94,0,0,1,31.352,22.322Z" transform="translate(-4.956 -4.694)" fill="#2093aa"/>
        <path id="Path_1540" data-name="Path 1540" d="M20.352,22.322a.94.94,0,0,1-.522-.158l-1.411-.941a.941.941,0,1,1,1.044-1.566l.889.593.889-.593a.941.941,0,1,1,1.044,1.566l-1.411.941A.94.94,0,0,1,20.352,22.322Z" transform="translate(-4.128 -4.694)" fill="#2093aa"/>
        <path id="Path_1541" data-name="Path 1541" d="M27.7,31.382H23.941a.941.941,0,1,1,0-1.882H27.7a.941.941,0,1,1,0,1.882Z" transform="translate(-4.511 -5.434)" fill="#2093aa"/>
        <path id="Path_1542" data-name="Path 1542" d="M39.941,61.026A.941.941,0,0,1,39,60.085V54.441a.941.941,0,0,1,1.882,0v5.645A.941.941,0,0,1,39.941,61.026Z" transform="translate(-5.677 -7.309)" fill="#2093aa"/>
        <path id="Path_1543" data-name="Path 1543" d="M11.941,61.026A.941.941,0,0,1,11,60.085V54.441a.941.941,0,1,1,1.882,0v5.645A.941.941,0,0,1,11.941,61.026Z" transform="translate(-3.474 -7.309)" fill="#2093aa"/>
        <path id="Path_1544" data-name="Path 1544" d="M52.793,36.585a3.293,3.293,0,1,1,3.293-3.293A3.3,3.3,0,0,1,52.793,36.585Zm0-4.7A1.411,1.411,0,1,0,54.2,33.293,1.413,1.413,0,0,0,52.793,31.882Z" transform="translate(-6.602 -5.51)" fill="#2093aa"/>
      </g>
    </g>
  </g>
</svg>
