<svg xmlns="http://www.w3.org/2000/svg" width="86" height="86" viewBox="0 0 86 86">
  <g id="Pharmacies" transform="translate(-1235 -180)">
    <g id="Rectangle_134" data-name="Rectangle 134" transform="translate(1235 180)" fill="none" stroke="#2093aa" stroke-width="1">
      <rect width="86" height="86" rx="8" stroke="none"/>
      <rect x="0.5" y="0.5" width="85" height="85" rx="7.5" fill="none"/>
    </g>
    <g id="Group_153" data-name="Group 153" transform="translate(3254.824 -7938.176)">
      <rect id="Rectangle_146" data-name="Rectangle 146" width="76" height="76" transform="translate(-2014.824 8123.176)" fill="none"/>
      <g id="Pharmacy" transform="translate(-2005.448 8133.983)">
        <path id="Path_1545" data-name="Path 1545" d="M3.578,57.385H26.835a3.671,3.671,0,0,0,3.578-3.751V47.07a.917.917,0,0,0-.894-.938H1.789V25.5H25.94a.939.939,0,0,0,0-1.875H1.789V20.816A1.836,1.836,0,0,1,3.578,18.94a3.473,3.473,0,0,0,2.529-1.1,3.764,3.764,0,0,0,.922-1.713H16.1a.939.939,0,0,0,0-1.875H7.156V12.377h16.1v1.875h-.894a.939.939,0,0,0,0,1.875h1.021a3.611,3.611,0,0,0,3.451,2.813,1.836,1.836,0,0,1,1.789,1.875v22.5a.9.9,0,1,0,1.789,0v-22.5a3.814,3.814,0,0,0-1.049-2.651,3.473,3.473,0,0,0-2.529-1.1,1.836,1.836,0,0,1-1.789-1.875V12.377A1.836,1.836,0,0,0,26.835,10.5V4.875A1.836,1.836,0,0,0,25.046,3H5.367A1.836,1.836,0,0,0,3.578,4.875V10.5a1.836,1.836,0,0,0,1.789,1.875V15.19a1.905,1.905,0,0,1-.525,1.325,1.738,1.738,0,0,1-1.264.55A3.671,3.671,0,0,0,0,20.816V53.634A3.671,3.671,0,0,0,3.578,57.385ZM5.367,4.875H7.156V7.688a.9.9,0,1,0,1.789,0V4.875h1.789V7.688a.9.9,0,1,0,1.789,0V4.875h1.789V7.688a.9.9,0,1,0,1.789,0V4.875H17.89V7.688a.9.9,0,1,0,1.789,0V4.875h1.789V7.688a.9.9,0,1,0,1.789,0V4.875h1.789V10.5H5.367ZM28.623,48.008v5.626a1.836,1.836,0,0,1-1.789,1.875H3.578a1.836,1.836,0,0,1-1.789-1.875V48.008Zm24.151-10.22a4.341,4.341,0,0,0-3.162,1.373l-8.854,9.282c-2.8,2.936-.812,8,3.162,8a4.341,4.341,0,0,0,3.162-1.373l8.854-9.283a4.775,4.775,0,0,0,1.31-3.315A4.582,4.582,0,0,0,52.775,37.788Zm-6.957,15.96a2.657,2.657,0,0,1-3.794,0,2.913,2.913,0,0,1,0-3.979l3.794-3.978,3.8,3.979Zm8.854-9.283-3.8,3.979-3.8-3.979,3.8-3.979C53.386,37.857,57.16,41.855,54.672,44.465Zm-17.1,2.6A5.632,5.632,0,1,0,32.2,41.444,5.51,5.51,0,0,0,37.568,47.07ZM34.5,39.551l4.877,5.112C36.219,46.617,32.617,42.889,34.5,39.551Zm6.142,3.786-4.877-5.112C38.918,36.271,42.519,40,40.639,43.337Z" transform="translate(0 -3)" fill="#2093aa"/>
        <path id="Path_1546" data-name="Path 1546" d="M14.478,44.608H18.13a.913.913,0,0,0,.913-.913V40.043h3.652a.913.913,0,0,0,.913-.913V35.478a.913.913,0,0,0-.913-.913H19.043V30.913A.913.913,0,0,0,18.13,30H14.478a.913.913,0,0,0-.913.913v3.652H9.913A.913.913,0,0,0,9,35.478V39.13a.913.913,0,0,0,.913.913h3.652v3.652A.913.913,0,0,0,14.478,44.608Zm-3.652-6.391V36.391h3.652a.913.913,0,0,0,.913-.913V31.826h1.826v3.652a.913.913,0,0,0,.913.913h3.652v1.826H18.13a.913.913,0,0,0-.913.913v3.652H15.391V39.13a.913.913,0,0,0-.913-.913Z" transform="translate(-0.783 -4.429)" fill="#2093aa"/>
      </g>
    </g>
  </g>
</svg>
