<svg width="24" height="24" viewBox="0 0 24 24" fill="none" xmlns="http://www.w3.org/2000/svg">
<path d="M13.8199 22H10.1799C9.95182 22 9.73059 21.9221 9.55289 21.7792C9.37518 21.6362 9.25169 21.4368 9.20288 21.214L8.79588 19.33C8.25294 19.0921 7.73812 18.7946 7.26088 18.443L5.42388 19.028C5.20645 19.0973 4.97183 19.0902 4.759 19.0078C4.54617 18.9254 4.36794 18.7727 4.25388 18.575L2.42988 15.424C2.31703 15.2261 2.27467 14.9958 2.30973 14.7708C2.34479 14.5457 2.45519 14.3392 2.62288 14.185L4.04788 12.885C3.98308 12.2961 3.98308 11.7019 4.04788 11.113L2.62288 9.816C2.45496 9.66177 2.3444 9.45507 2.30933 9.22978C2.27427 9.00449 2.31677 8.77397 2.42988 8.576L4.24988 5.423C4.36394 5.22532 4.54218 5.07259 4.755 4.99019C4.96783 4.90778 5.20245 4.90066 5.41988 4.97L7.25688 5.555C7.50088 5.375 7.75488 5.207 8.01688 5.055C8.26988 4.913 8.52988 4.784 8.79588 4.669L9.20388 2.787C9.25246 2.5642 9.37572 2.36469 9.55323 2.22155C9.73074 2.07841 9.95185 2.00024 10.1799 2H13.8199C14.0479 2.00024 14.269 2.07841 14.4465 2.22155C14.6241 2.36469 14.7473 2.5642 14.7959 2.787L15.2079 4.67C15.7501 4.90927 16.2648 5.20668 16.7429 5.557L18.5809 4.972C18.7982 4.90292 19.0326 4.91017 19.2452 4.99256C19.4578 5.07495 19.6359 5.22753 19.7499 5.425L21.5699 8.578C21.8019 8.985 21.7219 9.5 21.3769 9.817L19.9519 11.117C20.0167 11.7059 20.0167 12.3001 19.9519 12.889L21.3769 14.189C21.7219 14.507 21.8019 15.021 21.5699 15.428L19.7499 18.581C19.6358 18.7787 19.4576 18.9314 19.2448 19.0138C19.0319 19.0962 18.7973 19.1033 18.5799 19.034L16.7429 18.449C16.266 18.8003 15.7515 19.0975 15.2089 19.335L14.7959 21.214C14.7471 21.4366 14.6238 21.6359 14.4463 21.7788C14.2688 21.9218 14.0478 21.9998 13.8199 22V22ZM11.9959 8C10.935 8 9.9176 8.42143 9.16746 9.17157C8.41731 9.92172 7.99588 10.9391 7.99588 12C7.99588 13.0609 8.41731 14.0783 9.16746 14.8284C9.9176 15.5786 10.935 16 11.9959 16C13.0568 16 14.0742 15.5786 14.8243 14.8284C15.5745 14.0783 15.9959 13.0609 15.9959 12C15.9959 10.9391 15.5745 9.92172 14.8243 9.17157C14.0742 8.42143 13.0568 8 11.9959 8V8Z" fill="black"/>
</svg>
