<svg width="30" height="24" viewBox="0 0 30 24" fill="none" xmlns="http://www.w3.org/2000/svg">
<path d="M10.5 12C13.8141 12 16.5 9.31359 16.5 6C16.5 2.68641 13.8141 0 10.5 0C7.18594 0 4.5 2.68641 4.5 6C4.5 9.31359 7.18594 12 10.5 12ZM12.8766 14.25H8.12344C3.63609 14.25 0 17.8875 0 22.3734C0 23.2734 0.7275 24 1.62469 24H19.3734C20.2734 24 21 23.2734 21 22.3734C21 17.8875 17.3625 14.25 12.8766 14.25ZM22.4578 15H18.9961C21.15 16.7672 22.5 19.4109 22.5 22.3734C22.5 22.9734 22.3219 23.5266 22.0312 24H28.5C29.3297 24 30 23.325 30 22.4578C30 18.3563 26.6438 15 22.4578 15ZM20.25 12C23.1516 12 25.5 9.65156 25.5 6.75C25.5 3.84844 23.1516 1.5 20.25 1.5C19.073 1.5 17.9981 1.90102 17.1225 2.55516C17.6625 3.59203 18 4.75312 18 6C18 7.665 17.4408 9.19406 16.5192 10.4395C17.4703 11.4 18.7875 12 20.25 12Z" fill="black"/>
</svg>
