<svg width="21" height="24" viewBox="0 0 21 24" fill="none" xmlns="http://www.w3.org/2000/svg">
<path d="M5.25 5.25C5.25 2.35031 7.59844 0 10.5 0C13.4016 0 15.75 2.35031 15.75 5.25V7.5H18.75C19.9922 7.5 21 8.50781 21 9.75V19.5C21 21.9844 18.9844 24 16.5 24H4.5C2.01469 24 0 21.9844 0 19.5V9.75C0 8.50781 1.00734 7.5 2.25 7.5H5.25V5.25ZM7.5 7.5H13.5V5.25C13.5 3.59297 12.1547 2.25 10.5 2.25C8.84531 2.25 7.5 3.59297 7.5 5.25V7.5ZM6.375 12C6.99844 12 7.5 11.4984 7.5 10.875C7.5 10.2516 6.99844 9.75 6.375 9.75C5.75156 9.75 5.25 10.2516 5.25 10.875C5.25 11.4984 5.75156 12 6.375 12ZM14.625 9.75C14.0016 9.75 13.5 10.2516 13.5 10.875C13.5 11.4984 14.0016 12 14.625 12C15.2484 12 15.75 11.4984 15.75 10.875C15.75 10.2516 15.2484 9.75 14.625 9.75Z" fill="black"/>
</svg>
