<svg width="24" height="24" viewBox="0 0 24 24" fill="none" xmlns="http://www.w3.org/2000/svg">
<path d="M8.3998 2.9999C8.3998 2.84077 8.33659 2.68816 8.22407 2.57564C8.11155 2.46312 7.95893 2.3999 7.7998 2.3999C7.64067 2.3999 7.48806 2.46312 7.37554 2.57564C7.26302 2.68816 7.1998 2.84077 7.1998 2.9999V3.5999H6.5998C6.12242 3.5999 5.66458 3.78954 5.32701 4.12711C4.98945 4.46468 4.7998 4.92251 4.7998 5.3999V19.7999C4.7998 20.2773 4.98945 20.7351 5.32701 21.0727C5.66458 21.4103 6.12242 21.5999 6.5998 21.5999H13.1998V17.3999C13.1998 16.9225 13.3894 16.4647 13.727 16.1271C14.0646 15.7895 14.5224 15.5999 14.9998 15.5999H19.1998V5.3999C19.1998 4.92251 19.0102 4.46468 18.6726 4.12711C18.335 3.78954 17.8772 3.5999 17.3998 3.5999H16.7998V2.9999C16.7998 2.84077 16.7366 2.68816 16.6241 2.57564C16.5115 2.46312 16.3589 2.3999 16.1998 2.3999C16.0407 2.3999 15.8881 2.46312 15.7755 2.57564C15.663 2.68816 15.5998 2.84077 15.5998 2.9999V3.5999H12.5998V2.9999C12.5998 2.84077 12.5366 2.68816 12.4241 2.57564C12.3115 2.46312 12.1589 2.3999 11.9998 2.3999C11.8407 2.3999 11.6881 2.46312 11.5755 2.57564C11.463 2.68816 11.3998 2.84077 11.3998 2.9999V3.5999H8.3998V2.9999ZM8.3998 8.9999C8.3998 8.84077 8.46302 8.68816 8.57554 8.57564C8.68806 8.46312 8.84067 8.3999 8.9998 8.3999H14.9998C15.1589 8.3999 15.3115 8.46312 15.4241 8.57564C15.5366 8.68816 15.5998 8.84077 15.5998 8.9999C15.5998 9.15903 15.5366 9.31164 15.4241 9.42417C15.3115 9.53669 15.1589 9.5999 14.9998 9.5999H8.9998C8.84067 9.5999 8.68806 9.53669 8.57554 9.42417C8.46302 9.31164 8.3998 9.15903 8.3998 8.9999ZM8.9998 11.9999H14.9998C15.1589 11.9999 15.3115 12.0631 15.4241 12.1756C15.5366 12.2882 15.5998 12.4408 15.5998 12.5999C15.5998 12.759 15.5366 12.9116 15.4241 13.0242C15.3115 13.1367 15.1589 13.1999 14.9998 13.1999H8.9998C8.84067 13.1999 8.68806 13.1367 8.57554 13.0242C8.46302 12.9116 8.3998 12.759 8.3998 12.5999C8.3998 12.4408 8.46302 12.2882 8.57554 12.1756C8.68806 12.0631 8.84067 11.9999 8.9998 11.9999V11.9999ZM8.3998 16.1999C8.3998 16.0408 8.46302 15.8882 8.57554 15.7756C8.68806 15.6631 8.84067 15.5999 8.9998 15.5999H11.3998C11.5589 15.5999 11.7115 15.6631 11.8241 15.7756C11.9366 15.8882 11.9998 16.0408 11.9998 16.1999C11.9998 16.359 11.9366 16.5116 11.8241 16.6242C11.7115 16.7367 11.5589 16.7999 11.3998 16.7999H8.9998C8.84067 16.7999 8.68806 16.7367 8.57554 16.6242C8.46302 16.5116 8.3998 16.359 8.3998 16.1999ZM18.8278 16.7999H14.9998C14.8407 16.7999 14.6881 16.8631 14.5755 16.9756C14.463 17.0882 14.3998 17.2408 14.3998 17.3999V21.2279C14.461 21.1799 14.5198 21.1283 14.575 21.0719L18.673 16.9751C18.728 16.9202 18.7793 16.8616 18.8266 16.7999H18.8278Z" fill="black"/>
</svg>
